<svg width="24" height="24" viewBox="0 0 24 24" fill="none" xmlns="http://www.w3.org/2000/svg">
<path d="M14.6464 0.793L14.6464 0.793053L20.2069 6.35355L20.207 6.35361C20.3945 6.54107 20.4999 6.79534 20.5 7.0605C20.5 7.06054 20.5 7.06057 20.5 7.06061V21C20.5 21.663 20.2366 22.2989 19.7678 22.7678C19.2989 23.2366 18.663 23.5 18 23.5H6C5.33696 23.5 4.70107 23.2366 4.23223 22.7678C3.76339 22.2989 3.5 21.663 3.5 21V3C3.5 2.33696 3.76339 1.70107 4.23223 1.23223C4.70107 0.763392 5.33696 0.5 6 0.5H13.9394C13.9394 0.5 13.9395 0.5 13.9395 0.5C14.2047 0.500085 14.4589 0.605475 14.6464 0.793ZM14.6036 1.89645L13.75 1.04289V2.25V5.25C13.75 5.78043 13.9607 6.28914 14.3358 6.66421C14.7109 7.03929 15.2196 7.25 15.75 7.25H18.75H19.9571L19.1036 6.39645L14.6036 1.89645Z" stroke="black"/>
</svg>
