<?xml version="1.0" encoding="utf-8"?>
<!-- Generator: Adobe Illustrator 27.0.1, SVG Export Plug-In . SVG Version: 6.00 Build 0)  -->
<svg version="1.1" id="Layer_1" xmlns="http://www.w3.org/2000/svg" xmlns:xlink="http://www.w3.org/1999/xlink" x="0px" y="0px"
	 viewBox="0 0 16.2 22.7" style="enable-background:new 0 0 16.2 22.7;" xml:space="preserve">
<style type="text/css">
	.st0{fill:#FFFFFF;stroke:#231F20;stroke-width:5.715495e-02;stroke-miterlimit:10;}
	.st1{fill:#2484C7;stroke:#231F20;stroke-width:5.715495e-02;stroke-miterlimit:10;}
	.st2{font-family:'ShreeDev0714-Bold';}
	.st3{font-size:14.6317px;}
	.st4{fill:url(#SVGID_1_);stroke:#231F20;stroke-width:5.715495e-02;stroke-miterlimit:10;}
	
		.st5{fill:url(#SVGID_00000134214759341623146450000012196374426593750427_);stroke:#231F20;stroke-width:5.715495e-02;stroke-miterlimit:10;}
	
		.st6{fill:url(#SVGID_00000088094129583867383490000015031046124193958843_);stroke:#231F20;stroke-width:5.715495e-02;stroke-miterlimit:10;}
	
		.st7{fill:url(#SVGID_00000066508234250648289650000016152201144790954627_);stroke:#231F20;stroke-width:5.715495e-02;stroke-miterlimit:10;}
	
		.st8{fill:url(#SVGID_00000178910233358735134660000012923007092561138857_);stroke:#231F20;stroke-width:5.715495e-02;stroke-miterlimit:10;}
	
		.st9{fill:url(#SVGID_00000063609044729577565830000008161051647092371596_);stroke:#231F20;stroke-width:5.715495e-02;stroke-miterlimit:10;}
</style>
<g>
	<circle class="st0" cx="8.1" cy="8.1" r="8"/>
	<path class="st0" d="M8.1,16c-2.1,0.1-4.2-0.4-6.4-1.4c0,0.1,0.1,0.2,0.1,0.3c0.3,0.6,0.7,1,1.3,1.3c0.8,0.4,1.6,0.8,2.3,1.2
		C6.5,17.9,7,18.8,7,20c0,0.7,0,1.5,0,2.2c0,0.2,0.1,0.3,0.3,0.3c0.3,0,0.5,0,0.8,0c0.3,0,0.5,0,0.8,0c0.3,0,0.3-0.1,0.3-0.3
		c0-0.7,0-1.5,0-2.2c0-1.2,0.5-2,1.6-2.6c0.8-0.4,1.6-0.8,2.3-1.2c0.6-0.3,1-0.7,1.3-1.3c0-0.1,0.1-0.2,0.1-0.3
		C12.3,15.6,10.2,16.1,8.1,16z"/>
	<text transform="matrix(1 0 0 1 2.4775 13.6919)" class="st1 st2 st3">1</text>
	<radialGradient id="SVGID_1_" cx="4.6107" cy="2.3173" r="0.6724" gradientUnits="userSpaceOnUse">
		<stop  offset="0" style="stop-color:#9FC9E5"/>
		<stop  offset="1" style="stop-color:#2383C5"/>
	</radialGradient>
	<path class="st4" d="M5.3,2.3C5.3,2.7,5,3,4.6,3C4.2,3,3.9,2.7,3.9,2.3c0-0.4,0.3-0.7,0.7-0.7C5,1.6,5.3,1.9,5.3,2.3z"/>
	
		<radialGradient id="SVGID_00000057128481409452517510000013831520725011429254_" cx="3.3105" cy="3.4458" r="0.4922" gradientUnits="userSpaceOnUse">
		<stop  offset="0" style="stop-color:#9FC9E5"/>
		<stop  offset="1" style="stop-color:#2383C5"/>
	</radialGradient>
	
		<path style="fill:url(#SVGID_00000057128481409452517510000013831520725011429254_);stroke:#231F20;stroke-width:5.715495e-02;stroke-miterlimit:10;" d="
		M3.8,3.4c0,0.3-0.2,0.5-0.5,0.5C3,3.9,2.8,3.7,2.8,3.4C2.8,3.2,3,3,3.3,3C3.6,3,3.8,3.2,3.8,3.4z"/>
	
		<radialGradient id="SVGID_00000165229792519024805700000010760171175337216435_" cx="2.5202" cy="4.6021" r="0.4279" gradientUnits="userSpaceOnUse">
		<stop  offset="0" style="stop-color:#9FC9E5"/>
		<stop  offset="1" style="stop-color:#2383C5"/>
	</radialGradient>
	
		<path style="fill:url(#SVGID_00000165229792519024805700000010760171175337216435_);stroke:#231F20;stroke-width:5.715495e-02;stroke-miterlimit:10;" d="
		M2.9,4.6C2.9,4.8,2.8,5,2.5,5C2.3,5,2.1,4.8,2.1,4.6c0-0.2,0.2-0.4,0.4-0.4C2.8,4.2,2.9,4.4,2.9,4.6z"/>
	
		<radialGradient id="SVGID_00000111175464840918732850000011722857202983314861_" cx="11.7364" cy="13.999" r="0.6724" gradientUnits="userSpaceOnUse">
		<stop  offset="0" style="stop-color:#9FC9E5"/>
		<stop  offset="1" style="stop-color:#2383C5"/>
	</radialGradient>
	
		<path style="fill:url(#SVGID_00000111175464840918732850000011722857202983314861_);stroke:#231F20;stroke-width:5.715495e-02;stroke-miterlimit:10;" d="
		M12.4,14c0,0.4-0.3,0.7-0.7,0.7c-0.4,0-0.7-0.3-0.7-0.7c0-0.4,0.3-0.7,0.7-0.7C12.1,13.3,12.4,13.6,12.4,14z"/>
	
		<radialGradient id="SVGID_00000096779024464928557810000014506655646904021417_" cx="12.9721" cy="13.1018" r="0.4922" gradientUnits="userSpaceOnUse">
		<stop  offset="0" style="stop-color:#9FC9E5"/>
		<stop  offset="1" style="stop-color:#2383C5"/>
	</radialGradient>
	
		<path style="fill:url(#SVGID_00000096779024464928557810000014506655646904021417_);stroke:#231F20;stroke-width:5.715495e-02;stroke-miterlimit:10;" d="
		M13.5,13.1c0,0.3-0.2,0.5-0.5,0.5c-0.3,0-0.5-0.2-0.5-0.5c0-0.3,0.2-0.5,0.5-0.5C13.2,12.6,13.5,12.8,13.5,13.1z"/>
	
		<radialGradient id="SVGID_00000068655360474936706060000003381301243027042189_" cx="13.9126" cy="12.0172" r="0.4279" gradientUnits="userSpaceOnUse">
		<stop  offset="0" style="stop-color:#9FC9E5"/>
		<stop  offset="1" style="stop-color:#2383C5"/>
	</radialGradient>
	
		<path style="fill:url(#SVGID_00000068655360474936706060000003381301243027042189_);stroke:#231F20;stroke-width:5.715495e-02;stroke-miterlimit:10;" d="
		M14.3,12c0,0.2-0.2,0.4-0.4,0.4c-0.2,0-0.4-0.2-0.4-0.4c0-0.2,0.2-0.4,0.4-0.4C14.2,11.6,14.3,11.8,14.3,12z"/>
</g>
</svg>
