<?xml version="1.0" encoding="utf-8"?>
<!-- Generator: Adobe Illustrator 27.7.0, SVG Export Plug-In . SVG Version: 6.00 Build 0)  -->
<svg version="1.1" id="Layer_1" xmlns="http://www.w3.org/2000/svg" xmlns:xlink="http://www.w3.org/1999/xlink" x="0px" y="0px"
	 viewBox="0 0 328.3 130" style="enable-background:new 0 0 328.3 130;" xml:space="preserve">
<style type="text/css">
	.st0{fill:#FFFFFF;}
	.st1{fill:url(#SVGID_1_);}
</style>
<g>
	<path class="st0" d="M45.2,1.5C39,1.5,33.2,2.7,27.8,5c-5.4,2.3-10.2,5.5-14.3,9.7C9.4,18.8,6.2,23.6,3.9,29
		c-2.3,5.4-3.5,11.2-3.5,17.3v42c0,1.6,1.3,2.8,2.8,2.8h7.1c1.6,0,2.8-1.3,2.8-2.8v-42c0-5.9,1.4-11.3,4.3-16.1
		c2.9-4.9,6.7-8.7,11.6-11.6c4.9-2.9,10.2-4.3,16-4.3h43.1c1.6,0,2.8,1.3,2.8,2.8v35.6h0v12.8h0v22.8c0,1.6,1.3,2.8,2.8,2.8h7.1
		c1.6,0,2.8-1.3,2.8-2.8V4.4c0-1.6-1.3-2.8-2.8-2.8H45.2z"/>
	<path class="st0" d="M324.6,91.1h-87c-1.6,0-2.8-1.3-2.8-2.8V4.4c0-1.6,1.3-2.8,2.8-2.8h87c1.6,0,2.8,1.3,2.8,2.8v7.1
		c0,1.6-1.3,2.8-2.8,2.8h-74.2c-1.6,0-2.8,1.3-2.8,2.8v58.3c0,1.6,1.3,2.8,2.8,2.8h74.2c1.6,0,2.8,1.3,2.8,2.8v7.1
		C327.4,89.9,326.1,91.1,324.6,91.1z M313.7,52.7h-56.9c-1.6,0-2.8-1.3-2.8-2.8v-7.1c0-1.6,1.3-2.8,2.8-2.8h56.9
		c1.6,0,2.8,1.3,2.8,2.8v7.1C316.5,51.5,315.2,52.7,313.7,52.7z"/>
	<linearGradient id="SVGID_1_" gradientUnits="userSpaceOnUse" x1="19.5838" y1="46.3276" x2="219.2344" y2="46.3276">
		<stop  offset="0" style="stop-color:#EE2A7B"/>
		<stop  offset="1" style="stop-color:#92278F"/>
	</linearGradient>
	<path class="st1" d="M146.3,18.6c4.2-2.9,9.3-4.3,15.2-4.3h54.9c1.6,0,2.8-1.3,2.8-2.8V4.4c0-1.6-1.3-2.8-2.8-2.8h-54.9
		c-6.2,0-11.9,1.2-16.9,3.5c-5,2.3-9.4,5.5-13,9.7c-3.6,4.1-6.4,8.9-8.4,14.3c-1.3,3.5-2.1,7.1-2.6,10.9H22.4
		c-1.6,0-2.8,1.3-2.8,2.8v7.1c0,1.6,1.3,2.8,2.8,2.8h98.2c0.4,3.9,1.3,7.5,2.6,11.1c2,5.4,4.8,10.2,8.4,14.3c3.6,4.1,8,7.3,13,9.6
		c5,2.3,10.7,3.5,16.9,3.5h54.9c1.6,0,2.8-1.3,2.8-2.8v-7.1c0-1.6-1.3-2.8-2.8-2.8h-54.9c-5.9,0-10.9-1.5-15.2-4.4
		c-4.2-2.9-7.5-6.8-9.8-11.6c-2.3-4.8-3.5-10.2-3.5-16.1s1.2-11.3,3.5-16.1C138.9,25.3,142.1,21.5,146.3,18.6z"/>
</g>
<g>
	<g>
		<path class="st0" d="M65.1,123.4l1-4.8l-2.1-8h1.5l1.6,6.5l4.3-6.5h1.7l-5.5,8.1l-1,4.8H65.1z"/>
		<path class="st0" d="M75.9,123.5c-0.7,0-1.4-0.2-1.9-0.5c-0.5-0.3-0.9-0.7-1.2-1.3c-0.3-0.6-0.4-1.2-0.4-2c0-0.6,0.1-1.2,0.2-1.8
			s0.3-1.2,0.6-1.7s0.6-1,1-1.4s0.8-0.7,1.3-1c0.5-0.2,1.1-0.3,1.7-0.3c0.8,0,1.4,0.2,1.9,0.5c0.5,0.3,0.9,0.7,1.2,1.3
			s0.4,1.2,0.4,2c0,0.6-0.1,1.2-0.2,1.8s-0.3,1.2-0.6,1.7c-0.3,0.5-0.6,1-1,1.4c-0.4,0.4-0.8,0.7-1.4,1S76.5,123.5,75.9,123.5z
			 M76,122.3c0.4,0,0.7-0.1,1-0.2s0.6-0.4,0.9-0.7c0.3-0.3,0.5-0.6,0.7-1.1s0.3-0.9,0.5-1.4s0.2-1.1,0.2-1.8c0-0.4-0.1-0.8-0.2-1.1
			s-0.4-0.7-0.7-0.9c-0.3-0.2-0.7-0.3-1.2-0.3c-0.4,0-0.8,0.1-1.1,0.3s-0.7,0.4-0.9,0.7s-0.5,0.7-0.7,1.1s-0.3,0.9-0.4,1.4
			s-0.2,1-0.2,1.6c0,0.8,0.2,1.4,0.6,1.8S75.3,122.3,76,122.3z"/>
		<path class="st0" d="M85,123.5c-0.5,0-0.9-0.1-1.3-0.3s-0.6-0.4-0.8-0.8s-0.3-0.8-0.3-1.3c0-0.3,0-0.5,0.1-0.8s0.1-0.5,0.1-0.8
			l1.3-5.9h1.5l-1.3,6.1c0,0.3-0.1,0.5-0.1,0.7c0,0.2,0,0.4,0,0.5c0,0.4,0.1,0.7,0.3,1c0.2,0.2,0.6,0.3,1,0.3c0.4,0,0.9-0.1,1.4-0.4
			s0.9-0.8,1.3-1.4c0.4-0.6,0.7-1.5,0.9-2.5l0.9-4.2h1.4l-2,9.6h-1.2l0.2-1.9h-0.1c-0.2,0.3-0.5,0.6-0.8,0.9s-0.7,0.6-1.1,0.8
			C86,123.4,85.5,123.5,85,123.5z"/>
		<path class="st0" d="M92.5,123.4l2-9.6h1.2l-0.2,1.9h0.1c0.2-0.3,0.5-0.7,0.8-1s0.6-0.6,1-0.8s0.8-0.3,1.2-0.3c0.2,0,0.4,0,0.5,0
			s0.4,0.1,0.5,0.1l-0.3,1.3c-0.2,0-0.3-0.1-0.5-0.1s-0.3,0-0.5,0c-0.4,0-0.9,0.1-1.2,0.3s-0.7,0.5-1,0.9s-0.6,0.8-0.8,1.3
			s-0.4,1-0.5,1.5l-0.9,4.5H92.5z"/>
		<path class="st0" d="M104.5,123.4l2.7-12.8h6.5l-0.3,1.3h-5l-0.9,4.2h4.7l-0.3,1.3h-4.7l-1,4.8h5l-0.3,1.3H104.5z"/>
		<path class="st0" d="M113.8,123.4l2.7-12.8h1.5l-2.4,11.5h5l-0.3,1.3H113.8z"/>
		<path class="st0" d="M122.4,123.4l2.7-12.8h1.5l-2.7,12.8H122.4z"/>
		<path class="st0" d="M129.9,123.5c-0.6,0-1.2,0-1.7-0.1s-0.9-0.2-1.3-0.4v-1.5c0.4,0.2,0.8,0.4,1.3,0.5c0.5,0.2,1.1,0.2,1.7,0.2
			c0.4,0,0.8,0,1.2-0.1s0.7-0.2,1-0.4s0.5-0.5,0.7-0.8s0.3-0.7,0.3-1.1c0-0.3-0.1-0.7-0.2-0.9s-0.4-0.5-0.7-0.8s-0.7-0.5-1.3-0.8
			c-0.4-0.3-0.8-0.5-1.2-0.8c-0.4-0.3-0.6-0.6-0.8-1s-0.3-0.9-0.3-1.4c0-0.6,0.1-1.1,0.3-1.6s0.5-0.8,0.9-1.2s0.8-0.6,1.3-0.7
			c0.5-0.2,1-0.2,1.6-0.2c0.7,0,1.3,0.1,1.8,0.2s1,0.3,1.4,0.5l-0.6,1.3c-0.3-0.2-0.7-0.3-1.2-0.5s-0.9-0.2-1.4-0.2
			c-0.4,0-0.7,0-1,0.1c-0.3,0.1-0.6,0.2-0.8,0.4s-0.4,0.4-0.6,0.7c-0.1,0.3-0.2,0.6-0.2,1c0,0.4,0.1,0.7,0.2,0.9s0.4,0.5,0.6,0.7
			s0.6,0.4,1,0.7c0.5,0.3,1,0.6,1.4,0.9c0.4,0.3,0.7,0.7,0.9,1c0.2,0.4,0.3,0.9,0.3,1.5c0,0.6-0.1,1.2-0.3,1.7
			c-0.2,0.5-0.5,0.9-1,1.2c-0.4,0.3-0.9,0.6-1.5,0.7C131.2,123.5,130.6,123.5,129.9,123.5z"/>
		<path class="st0" d="M135.2,127.7l2.9-13.9h1.2l-0.2,1.9h0.1c0.3-0.4,0.6-0.7,0.9-1c0.3-0.3,0.7-0.6,1.1-0.7s0.8-0.3,1.3-0.3
			c0.5,0,1,0.1,1.4,0.4c0.4,0.2,0.7,0.6,0.9,1.1c0.2,0.5,0.3,1.1,0.3,1.8c0,0.7-0.1,1.4-0.2,2c-0.1,0.7-0.3,1.3-0.6,1.8
			c-0.3,0.6-0.6,1.1-1,1.5c-0.4,0.4-0.8,0.8-1.3,1c-0.5,0.2-1,0.4-1.6,0.4c-0.5,0-0.8-0.1-1.2-0.2c-0.3-0.2-0.6-0.4-0.8-0.6
			s-0.4-0.5-0.5-0.9h-0.1c0,0.2-0.1,0.5-0.1,0.8s-0.1,0.6-0.2,0.9l-0.9,4.1H135.2z M140.3,122.3c0.4,0,0.8-0.1,1.1-0.3
			s0.7-0.5,0.9-0.8s0.5-0.8,0.7-1.2s0.3-1,0.4-1.5s0.1-1.1,0.1-1.6c0-0.7-0.1-1.2-0.4-1.5s-0.7-0.5-1.2-0.5c-0.3,0-0.6,0.1-0.9,0.2
			s-0.6,0.3-0.8,0.6s-0.5,0.5-0.8,0.9s-0.4,0.7-0.6,1.1s-0.3,0.8-0.4,1.3s-0.1,0.9-0.1,1.4c0,0.6,0.2,1.1,0.5,1.5
			C139.2,122.1,139.6,122.3,140.3,122.3z"/>
		<path class="st0" d="M150.5,123.5c-0.7,0-1.4-0.2-1.9-0.5c-0.5-0.3-0.9-0.7-1.2-1.3c-0.3-0.6-0.4-1.2-0.4-2c0-0.6,0.1-1.2,0.2-1.8
			s0.3-1.2,0.6-1.7s0.6-1,1-1.4s0.8-0.7,1.3-1c0.5-0.2,1.1-0.3,1.7-0.3c0.8,0,1.4,0.2,1.9,0.5c0.5,0.3,0.9,0.7,1.2,1.3
			c0.3,0.6,0.4,1.2,0.4,2c0,0.6-0.1,1.2-0.2,1.8c-0.1,0.6-0.3,1.2-0.6,1.7c-0.3,0.5-0.6,1-1,1.4c-0.4,0.4-0.8,0.7-1.4,1
			C151.7,123.4,151.1,123.5,150.5,123.5z M150.5,122.3c0.4,0,0.7-0.1,1-0.2s0.6-0.4,0.9-0.7c0.3-0.3,0.5-0.6,0.7-1.1
			s0.3-0.9,0.5-1.4s0.2-1.1,0.2-1.8c0-0.4-0.1-0.8-0.2-1.1s-0.4-0.7-0.7-0.9c-0.3-0.2-0.7-0.3-1.2-0.3c-0.4,0-0.8,0.1-1.1,0.3
			s-0.7,0.4-0.9,0.7s-0.5,0.7-0.7,1.1s-0.3,0.9-0.4,1.4s-0.2,1-0.2,1.6c0,0.8,0.2,1.4,0.6,1.8S149.8,122.3,150.5,122.3z"/>
		<path class="st0" d="M159.4,123.5c-0.6,0-1.2-0.2-1.6-0.5c-0.4-0.3-0.6-0.8-0.6-1.6c0-0.2,0-0.4,0-0.6s0.1-0.4,0.1-0.7l1.1-5.4
			H157l0.1-0.7l1.6-0.6l1.1-2h0.9l-0.5,2.2h2.5l-0.2,1.1h-2.5l-1.1,5.4c0,0.2-0.1,0.3-0.1,0.5c0,0.2,0,0.4,0,0.5
			c0,0.3,0.1,0.5,0.2,0.7c0.2,0.2,0.4,0.3,0.8,0.3c0.2,0,0.4,0,0.6-0.1c0.2,0,0.4-0.1,0.6-0.2v1.1c-0.1,0.1-0.4,0.1-0.7,0.2
			C159.9,123.5,159.7,123.5,159.4,123.5z"/>
		<path class="st0" d="M163.2,114.9c0.2-0.5,0.4-1,0.7-1.5s0.4-1,0.6-1.5c0.2-0.5,0.4-1,0.5-1.4h1.6l0.1,0.2
			c-0.2,0.4-0.4,0.9-0.7,1.4c-0.3,0.5-0.5,1-0.8,1.5s-0.6,0.9-0.9,1.4H163.2z"/>
		<path class="st0" d="M167.9,123.5c-0.6,0-1.1-0.1-1.5-0.2c-0.4-0.1-0.8-0.3-1.2-0.4v-1.4c0.3,0.2,0.7,0.4,1.2,0.5s1,0.2,1.5,0.2
			c0.5,0,0.9-0.1,1.2-0.2c0.3-0.1,0.6-0.3,0.7-0.6c0.2-0.2,0.3-0.5,0.3-0.8c0-0.3-0.1-0.5-0.2-0.7c-0.1-0.2-0.3-0.4-0.5-0.5
			s-0.6-0.4-1-0.6c-0.5-0.3-0.8-0.5-1.1-0.8s-0.5-0.5-0.7-0.8c-0.2-0.3-0.2-0.7-0.2-1.1c0-0.6,0.1-1,0.4-1.4s0.6-0.7,1.1-0.9
			c0.5-0.2,1.1-0.3,1.7-0.3c0.6,0,1.1,0.1,1.6,0.2c0.5,0.1,0.9,0.3,1.3,0.5l-0.5,1.2c-0.3-0.1-0.7-0.3-1-0.4s-0.8-0.2-1.4-0.2
			c-0.6,0-1,0.1-1.3,0.4c-0.3,0.3-0.5,0.6-0.5,1c0,0.2,0,0.4,0.1,0.6c0.1,0.2,0.3,0.4,0.5,0.5c0.2,0.2,0.6,0.4,1,0.6
			c0.4,0.2,0.8,0.5,1.1,0.7c0.3,0.2,0.6,0.5,0.8,0.8s0.3,0.7,0.3,1.2c0,0.6-0.1,1.2-0.4,1.6c-0.3,0.4-0.7,0.8-1.3,1
			C169.3,123.4,168.7,123.5,167.9,123.5z"/>
		<path class="st0" d="M178.3,123.4l2.7-12.8h3.3c0.8,0,1.5,0.1,2,0.3c0.6,0.2,1,0.5,1.3,1s0.4,1,0.4,1.6c0,0.6-0.1,1.1-0.4,1.5
			s-0.6,0.8-1,1.1c-0.4,0.3-0.9,0.5-1.5,0.6v0.1c0.6,0.2,1.1,0.5,1.5,0.9c0.4,0.4,0.6,1,0.6,1.7c0,0.9-0.2,1.6-0.6,2.2
			c-0.4,0.6-1,1-1.8,1.3s-1.6,0.4-2.6,0.4H178.3z M180,122.1h2.4c0.7,0,1.3-0.1,1.8-0.3c0.5-0.2,0.9-0.5,1.1-0.9s0.4-0.9,0.4-1.5
			c0-0.6-0.2-1.1-0.6-1.5s-1.1-0.6-2-0.6h-2.1L180,122.1z M181.3,116h2.2c0.6,0,1.1-0.1,1.5-0.3s0.8-0.4,1.1-0.8
			c0.3-0.4,0.4-0.8,0.4-1.4c0-0.6-0.2-1-0.6-1.3s-1-0.5-1.9-0.5h-1.9L181.3,116z"/>
		<path class="st0" d="M192.7,123.5c-0.7,0-1.3-0.1-1.9-0.4c-0.5-0.3-0.9-0.7-1.2-1.2c-0.3-0.5-0.4-1.2-0.4-1.9
			c0-0.8,0.1-1.5,0.3-2.3c0.2-0.8,0.5-1.4,1-2c0.4-0.6,0.9-1.1,1.5-1.5c0.6-0.4,1.3-0.5,2-0.5c0.9,0,1.6,0.2,2,0.6
			c0.5,0.4,0.7,0.9,0.7,1.6c0,0.5-0.1,0.9-0.3,1.3c-0.2,0.4-0.6,0.8-1,1.1c-0.5,0.3-1.1,0.5-1.8,0.7c-0.7,0.2-1.6,0.2-2.5,0.2h-0.3
			c0,0.1,0,0.2,0,0.4c0,0.1,0,0.2,0,0.4c0,0.8,0.2,1.4,0.6,1.8s0.9,0.7,1.7,0.7c0.5,0,0.9-0.1,1.3-0.2c0.4-0.1,0.8-0.3,1.3-0.5v1.3
			c-0.4,0.2-0.9,0.4-1.3,0.5C193.8,123.5,193.3,123.5,192.7,123.5z M191,117.9h0.2c0.8,0,1.4-0.1,2.1-0.2c0.6-0.1,1.1-0.3,1.5-0.7
			s0.6-0.7,0.6-1.2c0-0.3-0.1-0.6-0.3-0.8s-0.6-0.3-1-0.3c-0.4,0-0.8,0.1-1.2,0.4c-0.4,0.2-0.7,0.6-1.1,1.1
			C191.4,116.7,191.1,117.3,191,117.9z"/>
		<path class="st0" d="M200.1,123.5c-0.6,0-1.1-0.1-1.5-0.2c-0.4-0.1-0.8-0.3-1.2-0.4v-1.4c0.3,0.2,0.7,0.4,1.2,0.5s1,0.2,1.5,0.2
			c0.5,0,0.9-0.1,1.2-0.2c0.3-0.1,0.6-0.3,0.7-0.6c0.2-0.2,0.3-0.5,0.3-0.8c0-0.3-0.1-0.5-0.2-0.7c-0.1-0.2-0.3-0.4-0.5-0.5
			s-0.6-0.4-1-0.6c-0.5-0.3-0.8-0.5-1.1-0.8s-0.5-0.5-0.7-0.8c-0.2-0.3-0.2-0.7-0.2-1.1c0-0.6,0.1-1,0.4-1.4s0.6-0.7,1.1-0.9
			c0.5-0.2,1.1-0.3,1.7-0.3c0.6,0,1.1,0.1,1.6,0.2c0.5,0.1,0.9,0.3,1.3,0.5l-0.5,1.2c-0.3-0.1-0.7-0.3-1-0.4s-0.8-0.2-1.4-0.2
			c-0.6,0-1,0.1-1.3,0.4c-0.3,0.3-0.5,0.6-0.5,1c0,0.2,0,0.4,0.1,0.6c0.1,0.2,0.3,0.4,0.5,0.5c0.2,0.2,0.6,0.4,1,0.6
			c0.4,0.2,0.8,0.5,1.1,0.7c0.3,0.2,0.6,0.5,0.8,0.8s0.3,0.7,0.3,1.2c0,0.6-0.1,1.2-0.4,1.6c-0.3,0.4-0.7,0.8-1.3,1
			C201.5,123.4,200.9,123.5,200.1,123.5z"/>
		<path class="st0" d="M208.3,123.5c-0.6,0-1.2-0.2-1.6-0.5c-0.4-0.3-0.6-0.8-0.6-1.6c0-0.2,0-0.4,0-0.6s0.1-0.4,0.1-0.7l1.1-5.4
			h-1.5l0.1-0.7l1.6-0.6l1.1-2h0.9l-0.5,2.2h2.5l-0.2,1.1h-2.5l-1.1,5.4c0,0.2-0.1,0.3-0.1,0.5c0,0.2,0,0.4,0,0.5
			c0,0.3,0.1,0.5,0.2,0.7c0.2,0.2,0.4,0.3,0.8,0.3c0.2,0,0.4,0,0.6-0.1c0.2,0,0.4-0.1,0.6-0.2v1.1c-0.1,0.1-0.4,0.1-0.7,0.2
			C208.9,123.5,208.6,123.5,208.3,123.5z"/>
		<path class="st0" d="M216.4,123.4l2.7-12.8h6.5l-0.3,1.3h-5l-1,4.7h4.7l-0.3,1.3h-4.7l-1.2,5.5H216.4z"/>
		<path class="st0" d="M224.8,123.4l2-9.6h1.2l-0.2,1.9h0.1c0.2-0.3,0.5-0.7,0.8-1s0.6-0.6,1-0.8c0.4-0.2,0.8-0.3,1.2-0.3
			c0.2,0,0.4,0,0.5,0s0.4,0.1,0.5,0.1l-0.3,1.3c-0.2,0-0.3-0.1-0.5-0.1c-0.1,0-0.3,0-0.5,0c-0.4,0-0.9,0.1-1.2,0.3s-0.7,0.5-1,0.9
			s-0.6,0.8-0.8,1.3c-0.2,0.5-0.4,1-0.5,1.5l-0.9,4.5H224.8z"/>
		<path class="st0" d="M231.9,123.4l2-9.6h1.5l-2,9.6H231.9z M235.2,112c-0.2,0-0.4-0.1-0.6-0.2c-0.2-0.1-0.2-0.3-0.2-0.6
			c0-0.2,0-0.4,0.1-0.5c0.1-0.2,0.2-0.3,0.3-0.4c0.2-0.1,0.3-0.2,0.5-0.2c0.3,0,0.5,0.1,0.6,0.2s0.2,0.3,0.2,0.6
			c0,0.3-0.1,0.6-0.3,0.8S235.4,112,235.2,112z"/>
		<path class="st0" d="M240.3,123.5c-0.7,0-1.3-0.1-1.9-0.4c-0.5-0.3-0.9-0.7-1.2-1.2c-0.3-0.5-0.4-1.2-0.4-1.9
			c0-0.8,0.1-1.5,0.3-2.3c0.2-0.8,0.5-1.4,1-2c0.4-0.6,0.9-1.1,1.5-1.5c0.6-0.4,1.3-0.5,2-0.5c0.9,0,1.6,0.2,2,0.6
			c0.5,0.4,0.7,0.9,0.7,1.6c0,0.5-0.1,0.9-0.3,1.3c-0.2,0.4-0.6,0.8-1,1.1c-0.5,0.3-1.1,0.5-1.8,0.7c-0.7,0.2-1.6,0.2-2.5,0.2h-0.3
			c0,0.1,0,0.2,0,0.4c0,0.1,0,0.2,0,0.4c0,0.8,0.2,1.4,0.6,1.8s0.9,0.7,1.7,0.7c0.5,0,0.9-0.1,1.3-0.2c0.4-0.1,0.8-0.3,1.3-0.5v1.3
			c-0.4,0.2-0.9,0.4-1.3,0.5C241.4,123.5,240.9,123.5,240.3,123.5z M238.6,117.9h0.2c0.8,0,1.4-0.1,2.1-0.2c0.6-0.1,1.1-0.3,1.5-0.7
			s0.6-0.7,0.6-1.2c0-0.3-0.1-0.6-0.3-0.8s-0.6-0.3-1-0.3c-0.4,0-0.8,0.1-1.2,0.4c-0.4,0.2-0.7,0.6-1.1,1.1
			C239,116.7,238.7,117.3,238.6,117.9z"/>
		<path class="st0" d="M245.3,123.4l2.1-9.7h1.3l-0.2,1.9h0c0.2-0.3,0.5-0.6,0.8-0.9c0.3-0.3,0.7-0.6,1.1-0.8
			c0.4-0.2,0.9-0.3,1.4-0.3c0.5,0,1,0.1,1.3,0.3c0.4,0.2,0.7,0.5,0.9,0.8c0.2,0.4,0.3,0.8,0.3,1.3c0,0.3,0,0.5-0.1,0.8
			s-0.1,0.5-0.1,0.7l-1.3,5.9h-1.6l1.3-6.1c0.1-0.3,0.1-0.5,0.1-0.7c0-0.2,0-0.4,0-0.5c0-0.4-0.1-0.7-0.3-0.9s-0.6-0.3-1-0.3
			c-0.4,0-0.9,0.1-1.4,0.4s-0.9,0.8-1.3,1.4c-0.4,0.6-0.7,1.5-0.9,2.5l-0.9,4.2H245.3z"/>
		<path class="st0" d="M258.8,123.5c-0.5,0-1-0.1-1.4-0.4s-0.7-0.6-0.9-1.1c-0.2-0.5-0.3-1.1-0.3-1.8c0-0.7,0.1-1.4,0.2-2
			s0.3-1.3,0.6-1.8s0.6-1.1,1-1.5s0.8-0.8,1.3-1c0.5-0.2,1-0.4,1.6-0.4c0.5,0,0.8,0.1,1.2,0.2s0.6,0.4,0.8,0.6
			c0.2,0.3,0.4,0.5,0.5,0.8h0.1c0-0.3,0.1-0.5,0.1-0.8c0-0.3,0.1-0.5,0.1-0.8c0-0.3,0.1-0.5,0.2-0.8l0.7-3.2h1.5l-2.9,13.7h-1.2
			l0.2-1.9h-0.1c-0.3,0.4-0.6,0.7-0.9,1c-0.3,0.3-0.7,0.6-1.1,0.7S259.2,123.5,258.8,123.5z M259.3,122.3c0.3,0,0.6-0.1,0.8-0.2
			s0.6-0.3,0.8-0.6s0.5-0.5,0.8-0.9s0.4-0.7,0.6-1.1c0.2-0.4,0.3-0.8,0.4-1.3s0.1-0.9,0.1-1.4c0-0.6-0.1-1.1-0.4-1.5
			s-0.8-0.6-1.4-0.6c-0.4,0-0.8,0.1-1.1,0.3c-0.3,0.2-0.7,0.5-0.9,0.8s-0.5,0.8-0.7,1.2c-0.2,0.5-0.3,1-0.4,1.5
			c-0.1,0.5-0.2,1.1-0.2,1.6c0,0.7,0.1,1.2,0.4,1.5C258.3,122.1,258.7,122.3,259.3,122.3z"/>
	</g>
</g>
</svg>
