<?xml version="1.0" encoding="utf-8"?>
<!-- Generator: Adobe Illustrator 27.7.0, SVG Export Plug-In . SVG Version: 6.00 Build 0)  -->
<svg version="1.1" id="Layer_1" xmlns="http://www.w3.org/2000/svg" xmlns:xlink="http://www.w3.org/1999/xlink" x="0px" y="0px"
	 viewBox="0 0 393.1 230.7" style="enable-background:new 0 0 393.1 230.7;" xml:space="preserve">
<style type="text/css">
	.st0{fill:#FFFFFF;}
	.st1{fill:url(#SVGID_1_);}
</style>
<path class="st0" d="M388.8,230.4H4.3c-2.1,0-3.7-1.7-3.7-3.7V4c0-2.1,1.7-3.7,3.7-3.7h384.6c2.1,0,3.7,1.7,3.7,3.7v222.7
	C392.6,228.7,390.9,230.4,388.8,230.4z"/>
<g>
	<path d="M77.8,70.5c-6.1,0-11.9,1.2-17.3,3.5c-5.4,2.3-10.2,5.5-14.3,9.7c-4.1,4.1-7.3,8.9-9.6,14.3c-2.3,5.4-3.5,11.2-3.5,17.3v42
		c0,1.6,1.3,2.8,2.8,2.8h7.1c1.6,0,2.8-1.3,2.8-2.8v-42c0-5.9,1.4-11.3,4.3-16.1c2.9-4.9,6.7-8.7,11.6-11.6c4.9-2.9,10.2-4.3,16-4.3
		h43.1c1.6,0,2.8,1.3,2.8,2.8v35.6h0v12.8h0v22.8c0,1.6,1.3,2.8,2.8,2.8h7.1c1.6,0,2.8-1.3,2.8-2.8V73.4c0-1.6-1.3-2.8-2.8-2.8H77.8
		z"/>
	<path d="M357.2,160.1h-87c-1.6,0-2.8-1.3-2.8-2.8V73.4c0-1.6,1.3-2.8,2.8-2.8h87c1.6,0,2.8,1.3,2.8,2.8v7.1c0,1.6-1.3,2.8-2.8,2.8
		H283c-1.6,0-2.8,1.3-2.8,2.8v58.3c0,1.6,1.3,2.8,2.8,2.8h74.2c1.6,0,2.8,1.3,2.8,2.8v7.1C360,158.9,358.7,160.1,357.2,160.1z
		 M346.3,121.7h-56.9c-1.6,0-2.8-1.3-2.8-2.8v-7.1c0-1.6,1.3-2.8,2.8-2.8h56.9c1.6,0,2.8,1.3,2.8,2.8v7.1
		C349.1,120.5,347.9,121.7,346.3,121.7z"/>
	<linearGradient id="SVGID_1_" gradientUnits="userSpaceOnUse" x1="52.205" y1="115.3265" x2="251.8556" y2="115.3265">
		<stop  offset="0" style="stop-color:#EE2A7B"/>
		<stop  offset="1" style="stop-color:#92278F"/>
	</linearGradient>
	<path class="st1" d="M179,87.6c4.2-2.9,9.3-4.3,15.2-4.3H249c1.6,0,2.8-1.3,2.8-2.8v-7.1c0-1.6-1.3-2.8-2.8-2.8h-54.9
		c-6.2,0-11.9,1.2-16.9,3.5c-5,2.3-9.4,5.5-13,9.7c-3.6,4.1-6.4,8.9-8.4,14.3c-1.3,3.5-2.1,7.1-2.6,10.9H55c-1.6,0-2.8,1.3-2.8,2.8
		v7.1c0,1.6,1.3,2.8,2.8,2.8h98.2c0.4,3.9,1.3,7.5,2.6,11.1c2,5.4,4.8,10.2,8.4,14.3c3.6,4.1,8,7.3,13,9.6c5,2.3,10.7,3.5,16.9,3.5
		H249c1.6,0,2.8-1.3,2.8-2.8v-7.1c0-1.6-1.3-2.8-2.8-2.8h-54.9c-5.9,0-10.9-1.5-15.2-4.4c-4.2-2.9-7.5-6.8-9.8-11.6
		c-2.3-4.8-3.5-10.2-3.5-16.1s1.2-11.3,3.5-16.1C171.5,94.3,174.7,90.5,179,87.6z"/>
</g>
</svg>
