<?xml version="1.0" encoding="utf-8"?>
<!-- Generator: Adobe Illustrator 27.7.0, SVG Export Plug-In . SVG Version: 6.00 Build 0)  -->
<svg version="1.1" id="Layer_1" xmlns="http://www.w3.org/2000/svg" xmlns:xlink="http://www.w3.org/1999/xlink" x="0px" y="0px"
	 viewBox="0 0 401.6 178.8" style="enable-background:new 0 0 401.6 178.8;" xml:space="preserve">
<style type="text/css">
	.st0{fill:url(#SVGID_1_);}
</style>
<g>
	<path d="M82,44.6c-6.1,0-11.9,1.2-17.3,3.5c-5.4,2.3-10.2,5.5-14.3,9.7c-4.1,4.1-7.3,8.9-9.6,14.3c-2.3,5.4-3.5,11.2-3.5,17.3v42
		c0,1.6,1.3,2.8,2.8,2.8h7.1c1.6,0,2.8-1.3,2.8-2.8v-42c0-5.9,1.4-11.3,4.3-16.1c2.9-4.9,6.7-8.7,11.6-11.6c4.9-2.9,10.2-4.3,16-4.3
		h43.1c1.6,0,2.8,1.3,2.8,2.8v35.6h0v12.8h0v22.8c0,1.6,1.3,2.8,2.8,2.8h7.1c1.6,0,2.8-1.3,2.8-2.8V47.4c0-1.6-1.3-2.8-2.8-2.8H82z"
		/>
	<path d="M361.4,134.2h-87c-1.6,0-2.8-1.3-2.8-2.8V47.4c0-1.6,1.3-2.8,2.8-2.8h87c1.6,0,2.8,1.3,2.8,2.8v7.1c0,1.6-1.3,2.8-2.8,2.8
		h-74.2c-1.6,0-2.8,1.3-2.8,2.8v58.3c0,1.6,1.3,2.8,2.8,2.8h74.2c1.6,0,2.8,1.3,2.8,2.8v7.1C364.2,132.9,363,134.2,361.4,134.2z
		 M350.5,95.8h-56.9c-1.6,0-2.8-1.3-2.8-2.8v-7.1c0-1.6,1.3-2.8,2.8-2.8h56.9c1.6,0,2.8,1.3,2.8,2.8V93
		C353.4,94.5,352.1,95.8,350.5,95.8z"/>
	<linearGradient id="SVGID_1_" gradientUnits="userSpaceOnUse" x1="56.4301" y1="89.4092" x2="256.0808" y2="89.4092">
		<stop  offset="0" style="stop-color:#EE2A7B"/>
		<stop  offset="1" style="stop-color:#92278F"/>
	</linearGradient>
	<path class="st0" d="M183.2,61.7c4.2-2.9,9.3-4.3,15.2-4.3h54.9c1.6,0,2.8-1.3,2.8-2.8v-7.1c0-1.6-1.3-2.8-2.8-2.8h-54.9
		c-6.2,0-11.9,1.2-16.9,3.5c-5,2.3-9.4,5.5-13,9.7c-3.6,4.1-6.4,8.9-8.4,14.3c-1.3,3.5-2.1,7.1-2.6,10.9H59.3
		c-1.6,0-2.8,1.3-2.8,2.8V93c0,1.6,1.3,2.8,2.8,2.8h98.2c0.4,3.9,1.3,7.5,2.6,11.1c2,5.4,4.8,10.2,8.4,14.3c3.6,4.1,8,7.3,13,9.6
		c5,2.3,10.7,3.5,16.9,3.5h54.9c1.6,0,2.8-1.3,2.8-2.8v-7.1c0-1.6-1.3-2.8-2.8-2.8h-54.9c-5.9,0-10.9-1.5-15.2-4.4
		c-4.2-2.9-7.5-6.8-9.8-11.6c-2.3-4.8-3.5-10.2-3.5-16.1s1.2-11.3,3.5-16.1C175.7,68.4,179,64.6,183.2,61.7z"/>
</g>
</svg>
