<?xml version="1.0" encoding="utf-8"?>
<!-- Generator: Adobe Illustrator 27.7.0, SVG Export Plug-In . SVG Version: 6.00 Build 0)  -->
<svg version="1.1" id="Layer_1" xmlns="http://www.w3.org/2000/svg" xmlns:xlink="http://www.w3.org/1999/xlink" x="0px" y="0px"
	 viewBox="0 0 327.4 89.7" style="enable-background:new 0 0 327.4 89.7;" xml:space="preserve">
<style type="text/css">
	.st0{fill:url(#SVGID_1_);}
</style>
<g>
	<path d="M45,0.1c-6.1,0-11.9,1.2-17.3,3.5C22.3,5.8,17.5,9,13.4,13.2c-4.1,4.1-7.3,8.9-9.6,14.3c-2.3,5.4-3.5,11.2-3.5,17.3v42
		c0,1.6,1.3,2.8,2.8,2.8h7.1c1.6,0,2.8-1.3,2.8-2.8v-42c0-5.9,1.4-11.3,4.3-16.1c2.9-4.9,6.7-8.7,11.6-11.6c4.9-2.9,10.2-4.3,16-4.3
		h43.1c1.6,0,2.8,1.3,2.8,2.8v35.6h0v12.8h0v22.8c0,1.6,1.3,2.8,2.8,2.8h7.1c1.6,0,2.8-1.3,2.8-2.8V2.9c0-1.6-1.3-2.8-2.8-2.8H45z"
		/>
	<path d="M324.4,89.7h-87c-1.6,0-2.8-1.3-2.8-2.8V2.9c0-1.6,1.3-2.8,2.8-2.8h87c1.6,0,2.8,1.3,2.8,2.8V10c0,1.6-1.3,2.8-2.8,2.8
		h-74.2c-1.6,0-2.8,1.3-2.8,2.8V74c0,1.6,1.3,2.8,2.8,2.8h74.2c1.6,0,2.8,1.3,2.8,2.8v7.1C327.3,88.4,326,89.7,324.4,89.7z
		 M313.6,51.3h-56.9c-1.6,0-2.8-1.3-2.8-2.8v-7.1c0-1.6,1.3-2.8,2.8-2.8h56.9c1.6,0,2.8,1.3,2.8,2.8v7.1
		C316.4,50,315.1,51.3,313.6,51.3z"/>
	<linearGradient id="SVGID_1_" gradientUnits="userSpaceOnUse" x1="19.4733" y1="44.8514" x2="219.124" y2="44.8514">
		<stop  offset="0" style="stop-color:#EE2A7B"/>
		<stop  offset="1" style="stop-color:#92278F"/>
	</linearGradient>
	<path class="st0" d="M146.2,17.1c4.2-2.9,9.3-4.3,15.2-4.3h54.9c1.6,0,2.8-1.3,2.8-2.8V2.9c0-1.6-1.3-2.8-2.8-2.8h-54.9
		c-6.2,0-11.9,1.2-16.9,3.5c-5,2.3-9.4,5.5-13,9.7c-3.6,4.1-6.4,8.9-8.4,14.3c-1.3,3.5-2.1,7.1-2.6,10.9H22.3
		c-1.6,0-2.8,1.3-2.8,2.8v7.1c0,1.6,1.3,2.8,2.8,2.8h98.2c0.4,3.9,1.3,7.5,2.6,11.1c2,5.4,4.8,10.2,8.4,14.3c3.6,4.1,8,7.3,13,9.6
		c5,2.3,10.7,3.5,16.9,3.5h54.9c1.6,0,2.8-1.3,2.8-2.8v-7.1c0-1.6-1.3-2.8-2.8-2.8h-54.9c-5.9,0-10.9-1.5-15.2-4.4
		c-4.2-2.9-7.5-6.8-9.8-11.6c-2.3-4.8-3.5-10.2-3.5-16.1s1.2-11.3,3.5-16.1C138.7,23.9,142,20,146.2,17.1z"/>
</g>
</svg>
