<?xml version="1.0" encoding="utf-8"?>
<!-- Generator: Adobe Illustrator 27.8.1, SVG Export Plug-In . SVG Version: 6.00 Build 0)  -->
<svg version="1.1" id="Layer_1" xmlns="http://www.w3.org/2000/svg" xmlns:xlink="http://www.w3.org/1999/xlink" x="0px" y="0px"
	 viewBox="0 0 328.3 130" style="enable-background:new 0 0 328.3 130;" xml:space="preserve">
<style type="text/css">
	.st0{fill:#FFFFFF;}
	.st1{fill:url(#SVGID_1_);}
</style>
<g>
	<path class="st0" d="M45.2,1.5C39,1.5,33.2,2.7,27.8,5c-5.4,2.3-10.2,5.5-14.3,9.7C9.4,18.8,6.2,23.6,3.9,29
		c-2.3,5.4-3.5,11.2-3.5,17.3v42c0,1.6,1.3,2.8,2.8,2.8h7.1c1.6,0,2.8-1.3,2.8-2.8v-42c0-5.9,1.4-11.3,4.3-16.1
		c2.9-4.9,6.7-8.7,11.6-11.6c4.9-2.9,10.2-4.3,16-4.3h43.1c1.6,0,2.8,1.3,2.8,2.8v35.6h0v12.8h0v22.8c0,1.6,1.3,2.8,2.8,2.8h7.1
		c1.6,0,2.8-1.3,2.8-2.8V4.4c0-1.6-1.3-2.8-2.8-2.8H45.2z"/>
	<path class="st0" d="M324.6,91.1h-87c-1.6,0-2.8-1.3-2.8-2.8V4.4c0-1.6,1.3-2.8,2.8-2.8h87c1.6,0,2.8,1.3,2.8,2.8v7.1
		c0,1.6-1.3,2.8-2.8,2.8h-74.2c-1.6,0-2.8,1.3-2.8,2.8v58.3c0,1.6,1.3,2.8,2.8,2.8h74.2c1.6,0,2.8,1.3,2.8,2.8v7.1
		C327.4,89.9,326.1,91.1,324.6,91.1z M313.7,52.7h-56.9c-1.6,0-2.8-1.3-2.8-2.8v-7.1c0-1.6,1.3-2.8,2.8-2.8h56.9
		c1.6,0,2.8,1.3,2.8,2.8v7.1C316.5,51.5,315.2,52.7,313.7,52.7z"/>
	<linearGradient id="SVGID_1_" gradientUnits="userSpaceOnUse" x1="19.5838" y1="46.3276" x2="219.2344" y2="46.3276">
		<stop  offset="0" style="stop-color:#EE2A7B"/>
		<stop  offset="1" style="stop-color:#92278F"/>
	</linearGradient>
	<path class="st1" d="M146.3,18.6c4.2-2.9,9.3-4.3,15.2-4.3h54.9c1.6,0,2.8-1.3,2.8-2.8V4.4c0-1.6-1.3-2.8-2.8-2.8h-54.9
		c-6.2,0-11.9,1.2-16.9,3.5c-5,2.3-9.4,5.5-13,9.7c-3.6,4.1-6.4,8.9-8.4,14.3c-1.3,3.5-2.1,7.1-2.6,10.9H22.4
		c-1.6,0-2.8,1.3-2.8,2.8v7.1c0,1.6,1.3,2.8,2.8,2.8h98.2c0.4,3.9,1.3,7.5,2.6,11.1c2,5.4,4.8,10.2,8.4,14.3c3.6,4.1,8,7.3,13,9.6
		c5,2.3,10.7,3.5,16.9,3.5h54.9c1.6,0,2.8-1.3,2.8-2.8v-7.1c0-1.6-1.3-2.8-2.8-2.8h-54.9c-5.9,0-10.9-1.5-15.2-4.4
		c-4.2-2.9-7.5-6.8-9.8-11.6c-2.3-4.8-3.5-10.2-3.5-16.1s1.2-11.3,3.5-16.1C138.9,25.3,142.1,21.5,146.3,18.6z"/>
</g>
<g>
	<g>
		<path class="st0" d="M83.8,123.4l2.7-12.8H93l-0.3,1.3h-5l-0.9,4.2h4.7l-0.3,1.3h-4.7l-1,4.8h5l-0.3,1.3H83.8z"/>
		<path class="st0" d="M93.1,123.4l2.7-12.8h1.5L94.8,122h5l-0.3,1.3H93.1z"/>
		<path class="st0" d="M101.7,123.4l2.7-12.8h1.5l-2.7,12.8H101.7z"/>
		<path class="st0" d="M109.2,123.5c-0.6,0-1.2,0-1.7-0.1s-0.9-0.2-1.3-0.4v-1.5c0.4,0.2,0.8,0.4,1.3,0.5c0.5,0.2,1.1,0.2,1.7,0.2
			c0.4,0,0.8,0,1.2-0.1s0.7-0.2,1-0.4s0.5-0.5,0.7-0.8s0.3-0.7,0.3-1.1c0-0.3-0.1-0.7-0.2-0.9s-0.4-0.5-0.7-0.8s-0.7-0.5-1.3-0.8
			c-0.4-0.3-0.8-0.5-1.2-0.8c-0.4-0.3-0.6-0.6-0.8-1s-0.3-0.9-0.3-1.4c0-0.6,0.1-1.1,0.3-1.6s0.5-0.8,0.9-1.2s0.8-0.6,1.3-0.7
			c0.5-0.2,1-0.2,1.6-0.2c0.7,0,1.3,0.1,1.8,0.2s1,0.3,1.4,0.5l-0.6,1.3c-0.3-0.2-0.7-0.3-1.2-0.5s-0.9-0.2-1.4-0.2
			c-0.4,0-0.7,0-1,0.1c-0.3,0.1-0.6,0.2-0.8,0.4s-0.4,0.4-0.6,0.7c-0.1,0.3-0.2,0.6-0.2,1c0,0.4,0.1,0.7,0.2,0.9s0.4,0.5,0.6,0.7
			s0.6,0.4,1,0.7c0.5,0.3,1,0.6,1.4,0.9c0.4,0.3,0.7,0.7,0.9,1c0.2,0.4,0.3,0.9,0.3,1.5c0,0.6-0.1,1.2-0.3,1.7
			c-0.2,0.5-0.5,0.9-1,1.2c-0.4,0.3-0.9,0.6-1.5,0.7C110.5,123.5,109.9,123.5,109.2,123.5z"/>
		<path class="st0" d="M114.5,127.7l2.9-13.9h1.2l-0.2,1.9h0.1c0.3-0.4,0.6-0.7,0.9-1c0.3-0.3,0.7-0.6,1.1-0.7s0.8-0.3,1.3-0.3
			c0.5,0,1,0.1,1.4,0.4c0.4,0.2,0.7,0.6,0.9,1.1c0.2,0.5,0.3,1.1,0.3,1.8c0,0.7-0.1,1.4-0.2,2s-0.3,1.3-0.6,1.8
			c-0.3,0.6-0.6,1.1-1,1.5c-0.4,0.4-0.8,0.8-1.3,1c-0.5,0.2-1,0.4-1.6,0.4c-0.5,0-0.8-0.1-1.2-0.2c-0.3-0.2-0.6-0.4-0.8-0.6
			s-0.4-0.5-0.5-0.9h-0.1c0,0.2-0.1,0.5-0.1,0.8s-0.1,0.6-0.2,0.9l-0.9,4.1H114.5z M119.6,122.3c0.4,0,0.8-0.1,1.1-0.3
			s0.7-0.5,0.9-0.8s0.5-0.8,0.7-1.2s0.3-1,0.4-1.5s0.1-1.1,0.1-1.6c0-0.7-0.1-1.2-0.4-1.5s-0.7-0.5-1.2-0.5c-0.3,0-0.6,0.1-0.9,0.2
			s-0.6,0.3-0.8,0.6s-0.5,0.5-0.8,0.9s-0.4,0.7-0.6,1.1s-0.3,0.8-0.4,1.3s-0.1,0.9-0.1,1.4c0,0.6,0.2,1.1,0.5,1.5
			C118.5,122.1,118.9,122.3,119.6,122.3z"/>
		<path class="st0" d="M129.8,123.5c-0.7,0-1.4-0.2-1.9-0.5c-0.5-0.3-0.9-0.7-1.2-1.3c-0.3-0.6-0.4-1.2-0.4-2c0-0.6,0.1-1.2,0.2-1.8
			s0.3-1.2,0.6-1.7s0.6-1,1-1.4s0.8-0.7,1.3-1c0.5-0.2,1.1-0.3,1.7-0.3c0.8,0,1.4,0.2,1.9,0.5c0.5,0.3,0.9,0.7,1.2,1.3
			s0.4,1.2,0.4,2c0,0.6-0.1,1.2-0.2,1.8s-0.3,1.2-0.6,1.7c-0.3,0.5-0.6,1-1,1.4c-0.4,0.4-0.8,0.7-1.4,1S130.4,123.5,129.8,123.5z
			 M129.8,122.3c0.4,0,0.7-0.1,1-0.2s0.6-0.4,0.9-0.7c0.3-0.3,0.5-0.6,0.7-1.1s0.3-0.9,0.5-1.4s0.2-1.1,0.2-1.8
			c0-0.4-0.1-0.8-0.2-1.1s-0.4-0.7-0.7-0.9c-0.3-0.2-0.7-0.3-1.2-0.3c-0.4,0-0.8,0.1-1.1,0.3s-0.7,0.4-0.9,0.7s-0.5,0.7-0.7,1.1
			s-0.3,0.9-0.4,1.4s-0.2,1-0.2,1.6c0,0.8,0.2,1.4,0.6,1.8S129.1,122.3,129.8,122.3z"/>
		<path class="st0" d="M138.7,123.5c-0.6,0-1.2-0.2-1.6-0.5c-0.4-0.3-0.6-0.8-0.6-1.6c0-0.2,0-0.4,0-0.6s0.1-0.4,0.1-0.7l1.1-5.4
			h-1.5l0.1-0.7l1.6-0.6l1.1-2h0.9l-0.5,2.2h2.5l-0.2,1.1h-2.5l-1.1,5.4c0,0.2-0.1,0.3-0.1,0.5s0,0.4,0,0.5c0,0.3,0.1,0.5,0.2,0.7
			c0.2,0.2,0.4,0.3,0.8,0.3c0.2,0,0.4,0,0.6-0.1s0.4-0.1,0.6-0.2v1.1c-0.1,0.1-0.4,0.1-0.7,0.2S139,123.5,138.7,123.5z"/>
		<path class="st0" d="M142.5,114.9c0.2-0.5,0.4-1,0.7-1.5s0.4-1,0.6-1.5s0.4-1,0.5-1.4h1.6l0.1,0.2c-0.2,0.4-0.4,0.9-0.7,1.4
			c-0.3,0.5-0.5,1-0.8,1.5s-0.6,0.9-0.9,1.4H142.5z"/>
		<path class="st0" d="M147.2,123.5c-0.6,0-1.1-0.1-1.5-0.2s-0.8-0.3-1.2-0.4v-1.4c0.3,0.2,0.7,0.4,1.2,0.5s1,0.2,1.5,0.2
			c0.5,0,0.9-0.1,1.2-0.2s0.6-0.3,0.7-0.6c0.2-0.2,0.3-0.5,0.3-0.8c0-0.3-0.1-0.5-0.2-0.7c-0.1-0.2-0.3-0.4-0.5-0.5s-0.6-0.4-1-0.6
			c-0.5-0.3-0.8-0.5-1.1-0.8s-0.5-0.5-0.7-0.8c-0.2-0.3-0.2-0.7-0.2-1.1c0-0.6,0.1-1,0.4-1.4s0.6-0.7,1.1-0.9s1.1-0.3,1.7-0.3
			c0.6,0,1.1,0.1,1.6,0.2c0.5,0.1,0.9,0.3,1.3,0.5l-0.5,1.2c-0.3-0.1-0.7-0.3-1-0.4s-0.8-0.2-1.4-0.2c-0.6,0-1,0.1-1.3,0.4
			s-0.5,0.6-0.5,1c0,0.2,0,0.4,0.1,0.6s0.3,0.4,0.5,0.5c0.2,0.2,0.6,0.4,1,0.6c0.4,0.2,0.8,0.5,1.1,0.7c0.3,0.2,0.6,0.5,0.8,0.8
			s0.3,0.7,0.3,1.2c0,0.6-0.1,1.2-0.4,1.6c-0.3,0.4-0.7,0.8-1.3,1C148.6,123.4,148,123.5,147.2,123.5z"/>
		<path class="st0" d="M157.6,123.4l2.7-12.8h3.3c0.8,0,1.5,0.1,2,0.3c0.6,0.2,1,0.5,1.3,1s0.4,1,0.4,1.6c0,0.6-0.1,1.1-0.4,1.5
			s-0.6,0.8-1,1.1c-0.4,0.3-0.9,0.5-1.5,0.6v0.1c0.6,0.2,1.1,0.5,1.5,0.9c0.4,0.4,0.6,1,0.6,1.7c0,0.9-0.2,1.6-0.6,2.2
			c-0.4,0.6-1,1-1.8,1.3s-1.6,0.4-2.6,0.4H157.6z M159.3,122.1h2.4c0.7,0,1.3-0.1,1.8-0.3c0.5-0.2,0.9-0.5,1.1-0.9
			c0.3-0.4,0.4-0.9,0.4-1.5c0-0.6-0.2-1.1-0.6-1.5c-0.4-0.4-1.1-0.6-2-0.6h-2.1L159.3,122.1z M160.6,116h2.2c0.6,0,1.1-0.1,1.5-0.3
			c0.5-0.2,0.8-0.4,1.1-0.8c0.3-0.4,0.4-0.8,0.4-1.4c0-0.6-0.2-1-0.6-1.3s-1-0.5-1.9-0.5h-1.9L160.6,116z"/>
		<path class="st0" d="M172,123.5c-0.7,0-1.3-0.1-1.9-0.4c-0.5-0.3-0.9-0.7-1.2-1.2c-0.3-0.5-0.4-1.2-0.4-1.9c0-0.8,0.1-1.5,0.3-2.3
			c0.2-0.8,0.5-1.4,1-2c0.4-0.6,0.9-1.1,1.5-1.5c0.6-0.4,1.3-0.5,2-0.5c0.9,0,1.6,0.2,2,0.6c0.5,0.4,0.7,0.9,0.7,1.6
			c0,0.5-0.1,0.9-0.3,1.3c-0.2,0.4-0.6,0.8-1,1.1c-0.5,0.3-1.1,0.5-1.8,0.7c-0.7,0.2-1.6,0.2-2.5,0.2h-0.3c0,0.1,0,0.2,0,0.4
			c0,0.1,0,0.2,0,0.4c0,0.8,0.2,1.4,0.6,1.8s0.9,0.7,1.7,0.7c0.5,0,0.9-0.1,1.3-0.2c0.4-0.1,0.8-0.3,1.3-0.5v1.3
			c-0.4,0.2-0.9,0.4-1.3,0.5C173.1,123.5,172.6,123.5,172,123.5z M170.3,117.9h0.2c0.8,0,1.4-0.1,2.1-0.2c0.6-0.1,1.1-0.3,1.5-0.7
			s0.6-0.7,0.6-1.2c0-0.3-0.1-0.6-0.3-0.8s-0.6-0.3-1-0.3c-0.4,0-0.8,0.1-1.2,0.4c-0.4,0.2-0.7,0.6-1.1,1.1
			C170.7,116.7,170.4,117.3,170.3,117.9z"/>
		<path class="st0" d="M179.4,123.5c-0.6,0-1.1-0.1-1.5-0.2c-0.4-0.1-0.8-0.3-1.2-0.4v-1.4c0.3,0.2,0.7,0.4,1.2,0.5s1,0.2,1.5,0.2
			c0.5,0,0.9-0.1,1.2-0.2c0.3-0.1,0.6-0.3,0.7-0.6c0.2-0.2,0.3-0.5,0.3-0.8c0-0.3-0.1-0.5-0.2-0.7c-0.1-0.2-0.3-0.4-0.5-0.5
			s-0.6-0.4-1-0.6c-0.5-0.3-0.8-0.5-1.1-0.8s-0.5-0.5-0.7-0.8c-0.2-0.3-0.2-0.7-0.2-1.1c0-0.6,0.1-1,0.4-1.4s0.6-0.7,1.1-0.9
			c0.5-0.2,1.1-0.3,1.7-0.3c0.6,0,1.1,0.1,1.6,0.2c0.5,0.1,0.9,0.3,1.3,0.5l-0.5,1.2c-0.3-0.1-0.7-0.3-1-0.4s-0.8-0.2-1.4-0.2
			c-0.6,0-1,0.1-1.3,0.4c-0.3,0.3-0.5,0.6-0.5,1c0,0.2,0,0.4,0.1,0.6c0.1,0.2,0.3,0.4,0.5,0.5c0.2,0.2,0.6,0.4,1,0.6
			c0.4,0.2,0.8,0.5,1.1,0.7c0.3,0.2,0.6,0.5,0.8,0.8s0.3,0.7,0.3,1.2c0,0.6-0.1,1.2-0.4,1.6c-0.3,0.4-0.7,0.8-1.3,1
			C180.8,123.4,180.2,123.5,179.4,123.5z"/>
		<path class="st0" d="M187.6,123.5c-0.6,0-1.2-0.2-1.6-0.5c-0.4-0.3-0.6-0.8-0.6-1.6c0-0.2,0-0.4,0-0.6s0.1-0.4,0.1-0.7l1.1-5.4
			h-1.5l0.1-0.7l1.6-0.6l1.1-2h0.9l-0.5,2.2h2.5l-0.2,1.1h-2.5l-1.1,5.4c0,0.2-0.1,0.3-0.1,0.5c0,0.2,0,0.4,0,0.5
			c0,0.3,0.1,0.5,0.2,0.7c0.2,0.2,0.4,0.3,0.8,0.3c0.2,0,0.4,0,0.6-0.1c0.2,0,0.4-0.1,0.6-0.2v1.1c-0.1,0.1-0.4,0.1-0.7,0.2
			C188.2,123.5,187.9,123.5,187.6,123.5z"/>
		<path class="st0" d="M195.7,123.4l2.7-12.8h6.5l-0.3,1.3h-5l-1,4.7h4.7l-0.3,1.3h-4.7l-1.2,5.5H195.7z"/>
		<path class="st0" d="M204.1,123.4l2-9.6h1.2l-0.2,1.9h0.1c0.2-0.3,0.5-0.7,0.8-1s0.6-0.6,1-0.8c0.4-0.2,0.8-0.3,1.2-0.3
			c0.2,0,0.4,0,0.5,0s0.4,0.1,0.5,0.1l-0.3,1.3c-0.2,0-0.3-0.1-0.5-0.1c-0.1,0-0.3,0-0.5,0c-0.4,0-0.9,0.1-1.2,0.3s-0.7,0.5-1,0.9
			s-0.6,0.8-0.8,1.3c-0.2,0.5-0.4,1-0.5,1.5l-0.9,4.5H204.1z"/>
		<path class="st0" d="M211.2,123.4l2-9.6h1.5l-2,9.6H211.2z M214.5,112c-0.2,0-0.4-0.1-0.6-0.2c-0.2-0.1-0.2-0.3-0.2-0.6
			c0-0.2,0-0.4,0.1-0.5c0.1-0.2,0.2-0.3,0.3-0.4c0.2-0.1,0.3-0.2,0.5-0.2c0.3,0,0.5,0.1,0.6,0.2s0.2,0.3,0.2,0.6
			c0,0.3-0.1,0.6-0.3,0.8S214.7,112,214.5,112z"/>
		<path class="st0" d="M219.6,123.5c-0.7,0-1.3-0.1-1.9-0.4c-0.5-0.3-0.9-0.7-1.2-1.2c-0.3-0.5-0.4-1.2-0.4-1.9
			c0-0.8,0.1-1.5,0.3-2.3c0.2-0.8,0.5-1.4,1-2c0.4-0.6,0.9-1.1,1.5-1.5c0.6-0.4,1.3-0.5,2-0.5c0.9,0,1.6,0.2,2,0.6
			c0.5,0.4,0.7,0.9,0.7,1.6c0,0.5-0.1,0.9-0.3,1.3c-0.2,0.4-0.6,0.8-1,1.1c-0.5,0.3-1.1,0.5-1.8,0.7c-0.7,0.2-1.6,0.2-2.5,0.2h-0.3
			c0,0.1,0,0.2,0,0.4c0,0.1,0,0.2,0,0.4c0,0.8,0.2,1.4,0.6,1.8s0.9,0.7,1.7,0.7c0.5,0,0.9-0.1,1.3-0.2c0.4-0.1,0.8-0.3,1.3-0.5v1.3
			c-0.4,0.2-0.9,0.4-1.3,0.5C220.7,123.5,220.2,123.5,219.6,123.5z M217.9,117.9h0.2c0.8,0,1.4-0.1,2.1-0.2c0.6-0.1,1.1-0.3,1.5-0.7
			s0.6-0.7,0.6-1.2c0-0.3-0.1-0.6-0.3-0.8s-0.6-0.3-1-0.3c-0.4,0-0.8,0.1-1.2,0.4c-0.4,0.2-0.7,0.6-1.1,1.1
			C218.3,116.7,218,117.3,217.9,117.9z"/>
		<path class="st0" d="M224.6,123.4l2.1-9.7h1.3l-0.2,1.9h0c0.2-0.3,0.5-0.6,0.8-0.9c0.3-0.3,0.7-0.6,1.1-0.8
			c0.4-0.2,0.9-0.3,1.4-0.3c0.5,0,1,0.1,1.3,0.3c0.4,0.2,0.7,0.5,0.9,0.8c0.2,0.4,0.3,0.8,0.3,1.3c0,0.3,0,0.5-0.1,0.8
			s-0.1,0.5-0.1,0.7l-1.3,5.9h-1.6l1.3-6.1c0.1-0.3,0.1-0.5,0.1-0.7c0-0.2,0-0.4,0-0.5c0-0.4-0.1-0.7-0.3-0.9s-0.6-0.3-1-0.3
			c-0.4,0-0.9,0.1-1.4,0.4s-0.9,0.8-1.3,1.4c-0.4,0.6-0.7,1.5-0.9,2.5l-0.9,4.2H224.6z"/>
		<path class="st0" d="M238.1,123.5c-0.5,0-1-0.1-1.4-0.4s-0.7-0.6-0.9-1.1c-0.2-0.5-0.3-1.1-0.3-1.8c0-0.7,0.1-1.4,0.2-2
			s0.3-1.3,0.6-1.8s0.6-1.1,1-1.5s0.8-0.8,1.3-1c0.5-0.2,1-0.4,1.6-0.4c0.5,0,0.8,0.1,1.2,0.2s0.6,0.4,0.8,0.6
			c0.2,0.3,0.4,0.5,0.5,0.8h0.1c0-0.3,0.1-0.5,0.1-0.8c0-0.3,0.1-0.5,0.1-0.8c0-0.3,0.1-0.5,0.2-0.8l0.7-3.2h1.5l-2.9,13.7h-1.2
			l0.2-1.9h-0.1c-0.3,0.4-0.6,0.7-0.9,1c-0.3,0.3-0.7,0.6-1.1,0.7S238.5,123.5,238.1,123.5z M238.6,122.3c0.3,0,0.6-0.1,0.8-0.2
			s0.6-0.3,0.8-0.6s0.5-0.5,0.8-0.9s0.4-0.7,0.6-1.1c0.2-0.4,0.3-0.8,0.4-1.3s0.1-0.9,0.1-1.4c0-0.6-0.1-1.1-0.4-1.5
			s-0.8-0.6-1.4-0.6c-0.4,0-0.8,0.1-1.1,0.3c-0.3,0.2-0.7,0.5-0.9,0.8s-0.5,0.8-0.7,1.2c-0.2,0.5-0.3,1-0.4,1.5
			c-0.1,0.5-0.2,1.1-0.2,1.6c0,0.7,0.1,1.2,0.4,1.5C237.6,122.1,238,122.3,238.6,122.3z"/>
	</g>
</g>
</svg>
