<?xml version="1.0" encoding="utf-8"?>
<!-- Generator: Adobe Illustrator 27.7.0, SVG Export Plug-In . SVG Version: 6.00 Build 0)  -->
<svg version="1.1" id="Layer_1" xmlns="http://www.w3.org/2000/svg" xmlns:xlink="http://www.w3.org/1999/xlink" x="0px" y="0px"
	 viewBox="0 0 129.9 129.9" style="enable-background:new 0 0 129.9 129.9;" xml:space="preserve">
<style type="text/css">
	.st0{fill:url(#SVGID_1_);}
</style>
<g>
	<path d="M17.9,47.2c-2.4,0-4.7,0.5-6.9,1.4c-2.1,0.9-4,2.2-5.7,3.8c-1.6,1.6-2.9,3.5-3.8,5.7c-0.9,2.1-1.4,4.4-1.4,6.9v16.6
		c0,0.6,0.5,1.1,1.1,1.1h2.8c0.6,0,1.1-0.5,1.1-1.1V65c0-2.3,0.6-4.5,1.7-6.4c1.1-1.9,2.7-3.5,4.6-4.6c1.9-1.1,4-1.7,6.3-1.7H35
		c0.6,0,1.1,0.5,1.1,1.1v14.1h0v5.1h0v9c0,0.6,0.5,1.1,1.1,1.1H40c0.6,0,1.1-0.5,1.1-1.1V48.3c0-0.6-0.5-1.1-1.1-1.1H17.9z"/>
	<path d="M128.7,82.7H94.2c-0.6,0-1.1-0.5-1.1-1.1V48.3c0-0.6,0.5-1.1,1.1-1.1h34.5c0.6,0,1.1,0.5,1.1,1.1v2.8
		c0,0.6-0.5,1.1-1.1,1.1H99.2c-0.6,0-1.1,0.5-1.1,1.1v23.1c0,0.6,0.5,1.1,1.1,1.1h29.4c0.6,0,1.1,0.5,1.1,1.1v2.8
		C129.8,82.2,129.3,82.7,128.7,82.7z M124.4,67.5h-22.6c-0.6,0-1.1-0.5-1.1-1.1v-2.8c0-0.6,0.5-1.1,1.1-1.1h22.6
		c0.6,0,1.1,0.5,1.1,1.1v2.8C125.5,67,125,67.5,124.4,67.5z"/>
	<linearGradient id="SVGID_1_" gradientUnits="userSpaceOnUse" x1="7.724" y1="64.9721" x2="86.9004" y2="64.9721">
		<stop  offset="0" style="stop-color:#EE2A7B"/>
		<stop  offset="1" style="stop-color:#92278F"/>
	</linearGradient>
	<path class="st0" d="M58,54c1.7-1.1,3.7-1.7,6-1.7h21.8c0.6,0,1.1-0.5,1.1-1.1v-2.8c0-0.6-0.5-1.1-1.1-1.1H64
		c-2.5,0-4.7,0.5-6.7,1.4c-2,0.9-3.7,2.2-5.2,3.8c-1.4,1.6-2.5,3.5-3.3,5.7c-0.5,1.4-0.8,2.8-1,4.3h-39c-0.6,0-1.1,0.5-1.1,1.1v2.8
		c0,0.6,0.5,1.1,1.1,1.1h39c0.2,1.5,0.5,3,1,4.4c0.8,2.1,1.9,4,3.3,5.7c1.4,1.6,3.2,2.9,5.2,3.8c2,0.9,4.2,1.4,6.7,1.4h21.8
		c0.6,0,1.1-0.5,1.1-1.1v-2.8c0-0.6-0.5-1.1-1.1-1.1H64c-2.3,0-4.3-0.6-6-1.7c-1.7-1.2-3-2.7-3.9-4.6c-0.9-1.9-1.4-4-1.4-6.4
		c0-2.3,0.5-4.5,1.4-6.4C55,56.6,56.3,55.1,58,54z"/>
</g>
</svg>
