<?xml version="1.0" encoding="utf-8"?>
<!-- Generator: Adobe Illustrator 27.0.1, SVG Export Plug-In . SVG Version: 6.00 Build 0)  -->
<svg version="1.1" id="Layer_1" xmlns="http://www.w3.org/2000/svg" xmlns:xlink="http://www.w3.org/1999/xlink" x="0px" y="0px"
	 viewBox="0 0 16.4 23" style="enable-background:new 0 0 16.4 23;" xml:space="preserve">
<style type="text/css">
	.st0{fill:#A0CAE6;stroke:#FFFFFF;stroke-width:0.2317;stroke-miterlimit:10;}
	.st1{fill:#F2F2F2;stroke:#509DC5;stroke-width:0.1158;stroke-miterlimit:10;}
	.st2{fill:url(#SVGID_1_);stroke:#010101;stroke-width:5.792097e-02;stroke-miterlimit:10;}
	
		.st3{fill:url(#SVGID_00000090272896168375028230000005443153892069904556_);stroke:#010101;stroke-width:5.792097e-02;stroke-miterlimit:10;}
	
		.st4{fill:url(#SVGID_00000138572863235252573930000005001154558811309492_);stroke:#010101;stroke-width:5.792097e-02;stroke-miterlimit:10;}
	
		.st5{fill:url(#SVGID_00000181057648579965163080000004486730567257966990_);stroke:#010101;stroke-width:5.792097e-02;stroke-miterlimit:10;}
	
		.st6{fill:url(#SVGID_00000141449864789989330390000015005662637769734325_);stroke:#010101;stroke-width:5.792097e-02;stroke-miterlimit:10;}
	
		.st7{fill:url(#SVGID_00000014628555350746927560000004753235605954703529_);stroke:#010101;stroke-width:5.792097e-02;stroke-miterlimit:10;}
	
		.st8{fill:url(#SVGID_00000035507293472894645300000001095965904932980396_);stroke:#010101;stroke-width:5.792097e-02;stroke-miterlimit:10;}
	
		.st9{fill:url(#SVGID_00000091709477412627232700000001023500655745685931_);stroke:#010101;stroke-width:5.792097e-02;stroke-miterlimit:10;}
	
		.st10{fill:url(#SVGID_00000178893010739610326760000007080850177394420139_);stroke:#010101;stroke-width:5.792097e-02;stroke-miterlimit:10;}
	
		.st11{fill:url(#SVGID_00000029748175460448176700000004329274371065548979_);stroke:#010101;stroke-width:5.792097e-02;stroke-miterlimit:10;}
	
		.st12{fill:url(#SVGID_00000017490489057999396560000007764692532443499184_);stroke:#010101;stroke-width:5.792097e-02;stroke-miterlimit:10;}
	
		.st13{fill:url(#SVGID_00000067200761074938387970000015409221404905175231_);stroke:#010101;stroke-width:5.792097e-02;stroke-miterlimit:10;}
	
		.st14{fill:url(#SVGID_00000081624303113176476420000007052286240807791282_);stroke:#010101;stroke-width:5.792097e-02;stroke-miterlimit:10;}
	
		.st15{fill:url(#SVGID_00000176762334634080526610000004761999525087162283_);stroke:#010101;stroke-width:5.792097e-02;stroke-miterlimit:10;}
	
		.st16{fill:url(#SVGID_00000114765088058522019420000007989051263408436881_);stroke:#010101;stroke-width:5.792097e-02;stroke-miterlimit:10;}
	
		.st17{fill:url(#SVGID_00000097474234406966298930000012314268570658209419_);stroke:#010101;stroke-width:5.792097e-02;stroke-miterlimit:10;}
	
		.st18{fill:url(#SVGID_00000021822286828448893910000004876725774273148318_);stroke:#010101;stroke-width:5.792097e-02;stroke-miterlimit:10;}
	
		.st19{fill:url(#SVGID_00000145049888292720479410000003867556379568403366_);stroke:#010101;stroke-width:5.792097e-02;stroke-miterlimit:10;}
	
		.st20{fill:url(#SVGID_00000068649091565149501300000000937001761622270388_);stroke:#010101;stroke-width:5.792097e-02;stroke-miterlimit:10;}
	
		.st21{fill:url(#SVGID_00000100346049407878692040000018299278734173028231_);stroke:#010101;stroke-width:5.792097e-02;stroke-miterlimit:10;}
	
		.st22{fill:url(#SVGID_00000020362312072718339700000004537604232237269161_);stroke:#010101;stroke-width:5.792097e-02;stroke-miterlimit:10;}
	
		.st23{fill:url(#SVGID_00000164513603304172646050000006011607958514703007_);stroke:#010101;stroke-width:5.792097e-02;stroke-miterlimit:10;}
	
		.st24{fill:url(#SVGID_00000084500713499074567990000016887903190834828167_);stroke:#010101;stroke-width:5.792097e-02;stroke-miterlimit:10;}
	
		.st25{fill:url(#SVGID_00000163793406126844217160000000973012154017015726_);stroke:#010101;stroke-width:5.792097e-02;stroke-miterlimit:10;}
	
		.st26{fill:url(#SVGID_00000057833396207141344050000016272583625999154056_);stroke:#010101;stroke-width:5.792097e-02;stroke-miterlimit:10;}
	
		.st27{fill:url(#SVGID_00000153681682661628070710000007320255762190037426_);stroke:#010101;stroke-width:5.792097e-02;stroke-miterlimit:10;}
	
		.st28{fill:url(#SVGID_00000176729692021594783390000006138426647148319888_);stroke:#010101;stroke-width:5.792097e-02;stroke-miterlimit:10;}
	
		.st29{fill:url(#SVGID_00000052815103225435949250000014687829353677302661_);stroke:#010101;stroke-width:5.792097e-02;stroke-miterlimit:10;}
	
		.st30{fill:url(#SVGID_00000013903694806866658160000006557387614593586082_);stroke:#010101;stroke-width:5.792097e-02;stroke-miterlimit:10;}
	
		.st31{fill:url(#SVGID_00000162345725948237630120000016991191455360738207_);stroke:#010101;stroke-width:5.792097e-02;stroke-miterlimit:10;}
	
		.st32{fill:url(#SVGID_00000067943739436240844630000012509560579455217824_);stroke:#010101;stroke-width:5.792097e-02;stroke-miterlimit:10;}
	
		.st33{fill:url(#SVGID_00000176010348728632448280000015143721892796200362_);stroke:#010101;stroke-width:5.792097e-02;stroke-miterlimit:10;}
	
		.st34{fill:url(#SVGID_00000082355400454873252920000012799529532426134450_);stroke:#010101;stroke-width:5.792097e-02;stroke-miterlimit:10;}
	
		.st35{fill:url(#SVGID_00000124160547836412241860000016936611199169548216_);stroke:#010101;stroke-width:5.792097e-02;stroke-miterlimit:10;}
	
		.st36{fill:url(#SVGID_00000053526672435114835550000002274920667769208236_);stroke:#010101;stroke-width:5.792097e-02;stroke-miterlimit:10;}
	
		.st37{fill:url(#SVGID_00000028289720528943960330000017835320852432136382_);stroke:#010101;stroke-width:5.792097e-02;stroke-miterlimit:10;}
	
		.st38{fill:url(#SVGID_00000004512526765956147150000008911399070221651077_);stroke:#010101;stroke-width:5.792097e-02;stroke-miterlimit:10;}
	
		.st39{fill:url(#SVGID_00000042014945458899077250000013989801344445334961_);stroke:#010101;stroke-width:5.792097e-02;stroke-miterlimit:10;}
	
		.st40{fill:url(#SVGID_00000181807325696110812270000016033989853464690347_);stroke:#010101;stroke-width:5.792097e-02;stroke-miterlimit:10;}
	
		.st41{fill:url(#SVGID_00000087412462988946847010000008860514261316060094_);stroke:#010101;stroke-width:5.792097e-02;stroke-miterlimit:10;}
	
		.st42{fill:url(#SVGID_00000022543075883895157480000001378818679498438834_);stroke:#010101;stroke-width:5.792097e-02;stroke-miterlimit:10;}
	
		.st43{fill:url(#SVGID_00000132080181786582031570000004736416234141237652_);stroke:#010101;stroke-width:5.792097e-02;stroke-miterlimit:10;}
	
		.st44{fill:url(#SVGID_00000149346822785527625510000016484764974768606640_);stroke:#010101;stroke-width:5.792097e-02;stroke-miterlimit:10;}
	
		.st45{fill:url(#SVGID_00000181785160098749420040000008496985872911380158_);stroke:#010101;stroke-width:5.792097e-02;stroke-miterlimit:10;}
	
		.st46{fill:url(#SVGID_00000003072709365823353760000018395359306560592549_);stroke:#010101;stroke-width:5.792097e-02;stroke-miterlimit:10;}
	
		.st47{fill:url(#SVGID_00000130606007684906222720000011698439289569971112_);stroke:#010101;stroke-width:5.792097e-02;stroke-miterlimit:10;}
	
		.st48{fill:url(#SVGID_00000030467916171783787650000012588039336970001025_);stroke:#010101;stroke-width:5.792097e-02;stroke-miterlimit:10;}
	
		.st49{fill:url(#SVGID_00000111904020870871875680000009879719404761077672_);stroke:#010101;stroke-width:5.792097e-02;stroke-miterlimit:10;}
	
		.st50{fill:url(#SVGID_00000115476174642777005690000004014127709205435272_);stroke:#010101;stroke-width:5.792097e-02;stroke-miterlimit:10;}
	
		.st51{fill:url(#SVGID_00000111163989569728440500000004029212110998451890_);stroke:#010101;stroke-width:5.792097e-02;stroke-miterlimit:10;}
</style>
<g>
	<g>
		<circle class="st0" cx="8.2" cy="8.2" r="8.1"/>
		<circle class="st1" cx="8.2" cy="8.2" r="7.7"/>
		<radialGradient id="SVGID_1_" cx="9.5006" cy="5.516" r="0.8252" gradientUnits="userSpaceOnUse">
			<stop  offset="0" style="stop-color:#A0CAE6"/>
			<stop  offset="1" style="stop-color:#2484C7"/>
		</radialGradient>
		<path class="st2" d="M9.5,6.3C9,6.3,8.7,6,8.7,5.5c0-0.5,0.4-0.8,0.8-0.8c0.5,0,0.8,0.4,0.8,0.8C10.3,6,10,6.3,9.5,6.3z"/>
		
			<radialGradient id="SVGID_00000144328806192979975250000014257387750142752648_" cx="6.96" cy="5.5001" r="0.8236" gradientUnits="userSpaceOnUse">
			<stop  offset="0" style="stop-color:#A0CAE6"/>
			<stop  offset="1" style="stop-color:#2484C7"/>
		</radialGradient>
		
			<path style="fill:url(#SVGID_00000144328806192979975250000014257387750142752648_);stroke:#010101;stroke-width:5.792097e-02;stroke-miterlimit:10;" d="
			M7,4.7c0.5,0,0.8,0.4,0.8,0.8C7.8,6,7.4,6.3,7,6.3c-0.5,0-0.8-0.4-0.8-0.8C6.1,5,6.5,4.7,7,4.7z"/>
		
			<radialGradient id="SVGID_00000159460832988085531880000011400214040549874838_" cx="10.7709" cy="6.7862" r="0.8214" gradientUnits="userSpaceOnUse">
			<stop  offset="0" style="stop-color:#A0CAE6"/>
			<stop  offset="1" style="stop-color:#2484C7"/>
		</radialGradient>
		
			<path style="fill:url(#SVGID_00000159460832988085531880000011400214040549874838_);stroke:#010101;stroke-width:5.792097e-02;stroke-miterlimit:10;" d="
			M11.6,6.8c0,0.5-0.4,0.8-0.8,0.8c-0.5,0-0.8-0.4-0.8-0.8C10,6.3,10.3,6,10.8,6C11.2,6,11.6,6.3,11.6,6.8z"/>
		
			<radialGradient id="SVGID_00000018196626449633751880000001621064993219276436_" cx="5.6897" cy="6.7704" r="0.8214" gradientUnits="userSpaceOnUse">
			<stop  offset="0" style="stop-color:#A0CAE6"/>
			<stop  offset="1" style="stop-color:#2484C7"/>
		</radialGradient>
		
			<path style="fill:url(#SVGID_00000018196626449633751880000001621064993219276436_);stroke:#010101;stroke-width:5.792097e-02;stroke-miterlimit:10;" d="
			M6.5,6.8c0,0.5-0.4,0.8-0.8,0.8c-0.5,0-0.8-0.4-0.8-0.8c0-0.5,0.4-0.8,0.8-0.8C6.2,6,6.5,6.3,6.5,6.8z"/>
		
			<radialGradient id="SVGID_00000136372030611272870950000017903534786564294320_" cx="10.755" cy="9.3268" r="0.8138" gradientUnits="userSpaceOnUse">
			<stop  offset="0" style="stop-color:#A0CAE6"/>
			<stop  offset="1" style="stop-color:#2484C7"/>
		</radialGradient>
		
			<path style="fill:url(#SVGID_00000136372030611272870950000017903534786564294320_);stroke:#010101;stroke-width:5.792097e-02;stroke-miterlimit:10;" d="
			M11.6,9.3c0,0.5-0.4,0.8-0.8,0.8c-0.5,0-0.8-0.4-0.8-0.8c0-0.5,0.4-0.8,0.8-0.8C11.2,8.5,11.6,8.9,11.6,9.3z"/>
		
			<radialGradient id="SVGID_00000030470342704740252450000004949191915195824810_" cx="5.6739" cy="9.311" r="0.8115" gradientUnits="userSpaceOnUse">
			<stop  offset="0" style="stop-color:#A0CAE6"/>
			<stop  offset="1" style="stop-color:#2484C7"/>
		</radialGradient>
		
			<path style="fill:url(#SVGID_00000030470342704740252450000004949191915195824810_);stroke:#010101;stroke-width:5.792097e-02;stroke-miterlimit:10;" d="
			M5.7,8.5c0.5,0,0.8,0.4,0.8,0.8c0,0.5-0.4,0.8-0.8,0.8c-0.5,0-0.8-0.4-0.8-0.8C4.9,8.9,5.2,8.5,5.7,8.5z"/>
		
			<radialGradient id="SVGID_00000143598430502289398590000001875774387619660971_" cx="9.4847" cy="10.5971" r="0.8099" gradientUnits="userSpaceOnUse">
			<stop  offset="0" style="stop-color:#A0CAE6"/>
			<stop  offset="1" style="stop-color:#2484C7"/>
		</radialGradient>
		
			<path style="fill:url(#SVGID_00000143598430502289398590000001875774387619660971_);stroke:#010101;stroke-width:5.792097e-02;stroke-miterlimit:10;" d="
			M9.5,11.4c-0.4,0-0.8-0.4-0.8-0.8c0-0.4,0.4-0.8,0.8-0.8c0.4,0,0.8,0.4,0.8,0.8C10.3,11,9.9,11.4,9.5,11.4z"/>
		
			<radialGradient id="SVGID_00000067919757995648245440000015073846478699486617_" cx="6.9442" cy="10.5812" r="0.8099" gradientUnits="userSpaceOnUse">
			<stop  offset="0" style="stop-color:#A0CAE6"/>
			<stop  offset="1" style="stop-color:#2484C7"/>
		</radialGradient>
		
			<path style="fill:url(#SVGID_00000067919757995648245440000015073846478699486617_);stroke:#010101;stroke-width:5.792097e-02;stroke-miterlimit:10;" d="
			M6.9,9.8c0.4,0,0.8,0.4,0.8,0.8c0,0.4-0.4,0.8-0.8,0.8c-0.4,0-0.8-0.4-0.8-0.8C6.1,10.1,6.5,9.8,6.9,9.8z"/>
		
			<radialGradient id="SVGID_00000104676577249954276840000012707050628165933733_" cx="8.2303" cy="4.2457" r="0.7494" gradientUnits="userSpaceOnUse">
			<stop  offset="0" style="stop-color:#A0CAE6"/>
			<stop  offset="1" style="stop-color:#2484C7"/>
		</radialGradient>
		
			<path style="fill:url(#SVGID_00000104676577249954276840000012707050628165933733_);stroke:#010101;stroke-width:5.792097e-02;stroke-miterlimit:10;" d="
			M9,4.2C9,4.7,8.6,5,8.2,5C7.8,5,7.5,4.7,7.5,4.2c0-0.4,0.3-0.7,0.7-0.7C8.6,3.5,9,3.8,9,4.2z"/>
		
			<radialGradient id="SVGID_00000058580392143677614620000013760038818054971050_" cx="12.0253" cy="8.0565" r="0.7439" gradientUnits="userSpaceOnUse">
			<stop  offset="0" style="stop-color:#A0CAE6"/>
			<stop  offset="1" style="stop-color:#2484C7"/>
		</radialGradient>
		
			<path style="fill:url(#SVGID_00000058580392143677614620000013760038818054971050_);stroke:#010101;stroke-width:5.792097e-02;stroke-miterlimit:10;" d="
			M12,7.3c0.4,0,0.7,0.3,0.7,0.7c0,0.4-0.3,0.7-0.7,0.7c-0.4,0-0.7-0.3-0.7-0.7C11.3,7.6,11.6,7.3,12,7.3z"/>
		
			<radialGradient id="SVGID_00000087400588444512853010000018224902407453901752_" cx="4.4036" cy="8.0406" r="0.741" gradientUnits="userSpaceOnUse">
			<stop  offset="0" style="stop-color:#A0CAE6"/>
			<stop  offset="1" style="stop-color:#2484C7"/>
		</radialGradient>
		
			<path style="fill:url(#SVGID_00000087400588444512853010000018224902407453901752_);stroke:#010101;stroke-width:5.792097e-02;stroke-miterlimit:10;" d="
			M4.4,7.3c0.4,0,0.7,0.3,0.7,0.7c0,0.4-0.3,0.7-0.7,0.7C4,8.8,3.7,8.5,3.7,8C3.7,7.6,4,7.3,4.4,7.3z"/>
		
			<radialGradient id="SVGID_00000113327827753062209420000009774035069663403932_" cx="8.2145" cy="11.8674" r="0.7312" gradientUnits="userSpaceOnUse">
			<stop  offset="0" style="stop-color:#A0CAE6"/>
			<stop  offset="1" style="stop-color:#2484C7"/>
		</radialGradient>
		
			<path style="fill:url(#SVGID_00000113327827753062209420000009774035069663403932_);stroke:#010101;stroke-width:5.792097e-02;stroke-miterlimit:10;" d="
			M8.2,12.6c-0.4,0-0.7-0.3-0.7-0.7c0-0.4,0.3-0.7,0.7-0.7c0.4,0,0.7,0.3,0.7,0.7C8.9,12.3,8.6,12.6,8.2,12.6z"/>
		
			<radialGradient id="SVGID_00000182486117643831890590000007387917179210263218_" cx="5.6897" cy="4.2298" r="0.6831" gradientUnits="userSpaceOnUse">
			<stop  offset="0" style="stop-color:#A0CAE6"/>
			<stop  offset="1" style="stop-color:#2484C7"/>
		</radialGradient>
		
			<path style="fill:url(#SVGID_00000182486117643831890590000007387917179210263218_);stroke:#010101;stroke-width:5.792097e-02;stroke-miterlimit:10;" d="
			M5.7,4.9C5.3,4.9,5,4.6,5,4.2c0-0.4,0.3-0.7,0.7-0.7c0.4,0,0.7,0.3,0.7,0.7C6.4,4.6,6.1,4.9,5.7,4.9z"/>
		
			<radialGradient id="SVGID_00000080169919891661789680000013012841843237857941_" cx="10.7709" cy="4.2457" r="0.6831" gradientUnits="userSpaceOnUse">
			<stop  offset="0" style="stop-color:#A0CAE6"/>
			<stop  offset="1" style="stop-color:#2484C7"/>
		</radialGradient>
		
			<path style="fill:url(#SVGID_00000080169919891661789680000013012841843237857941_);stroke:#010101;stroke-width:5.792097e-02;stroke-miterlimit:10;" d="
			M11.5,4.3c0,0.4-0.3,0.7-0.7,0.7c-0.4,0-0.7-0.3-0.7-0.7c0-0.4,0.3-0.7,0.7-0.7C11.2,3.6,11.5,3.9,11.5,4.3z"/>
		
			<radialGradient id="SVGID_00000027576575900947437110000010246583105509276810_" cx="12.0412" cy="5.516" r="0.6814" gradientUnits="userSpaceOnUse">
			<stop  offset="0" style="stop-color:#A0CAE6"/>
			<stop  offset="1" style="stop-color:#2484C7"/>
		</radialGradient>
		
			<path style="fill:url(#SVGID_00000027576575900947437110000010246583105509276810_);stroke:#010101;stroke-width:5.792097e-02;stroke-miterlimit:10;" d="
			M12,4.8c0.4,0,0.7,0.3,0.7,0.7c0,0.4-0.3,0.7-0.7,0.7c-0.4,0-0.7-0.3-0.7-0.7C11.4,5.1,11.7,4.8,12,4.8z"/>
		
			<radialGradient id="SVGID_00000097464916585724275130000011579938091472197264_" cx="4.4195" cy="5.5001" r="0.6814" gradientUnits="userSpaceOnUse">
			<stop  offset="0" style="stop-color:#A0CAE6"/>
			<stop  offset="1" style="stop-color:#2484C7"/>
		</radialGradient>
		
			<path style="fill:url(#SVGID_00000097464916585724275130000011579938091472197264_);stroke:#010101;stroke-width:5.792097e-02;stroke-miterlimit:10;" d="
			M5.1,5.5c0,0.4-0.3,0.7-0.7,0.7C4,6.2,3.7,5.9,3.7,5.5c0-0.4,0.3-0.7,0.7-0.7C4.8,4.8,5.1,5.1,5.1,5.5z"/>
		
			<radialGradient id="SVGID_00000068675385788910655070000005002758880056943273_" cx="12.0253" cy="10.5971" r="0.6701" gradientUnits="userSpaceOnUse">
			<stop  offset="0" style="stop-color:#A0CAE6"/>
			<stop  offset="1" style="stop-color:#2484C7"/>
		</radialGradient>
		
			<path style="fill:url(#SVGID_00000068675385788910655070000005002758880056943273_);stroke:#010101;stroke-width:5.792097e-02;stroke-miterlimit:10;" d="
			M12.7,10.6c0,0.4-0.3,0.7-0.7,0.7c-0.4,0-0.7-0.3-0.7-0.7c0-0.4,0.3-0.7,0.7-0.7C12.4,9.9,12.7,10.2,12.7,10.6z"/>
		
			<radialGradient id="SVGID_00000140712456294266860410000011027397788332574884_" cx="10.755" cy="11.8674" r="0.6678" gradientUnits="userSpaceOnUse">
			<stop  offset="0" style="stop-color:#A0CAE6"/>
			<stop  offset="1" style="stop-color:#2484C7"/>
		</radialGradient>
		
			<path style="fill:url(#SVGID_00000140712456294266860410000011027397788332574884_);stroke:#010101;stroke-width:5.792097e-02;stroke-miterlimit:10;" d="
			M10.8,11.2c0.4,0,0.7,0.3,0.7,0.7c0,0.4-0.3,0.7-0.7,0.7c-0.4,0-0.7-0.3-0.7-0.7C10.1,11.5,10.4,11.2,10.8,11.2z"/>
		
			<radialGradient id="SVGID_00000036243645068252550580000002936681347920885922_" cx="5.6739" cy="11.8515" r="0.6678" gradientUnits="userSpaceOnUse">
			<stop  offset="0" style="stop-color:#A0CAE6"/>
			<stop  offset="1" style="stop-color:#2484C7"/>
		</radialGradient>
		
			<path style="fill:url(#SVGID_00000036243645068252550580000002936681347920885922_);stroke:#010101;stroke-width:5.792097e-02;stroke-miterlimit:10;" d="
			M5.7,12.5c-0.4,0-0.7-0.3-0.7-0.7c0-0.4,0.3-0.7,0.7-0.7c0.4,0,0.7,0.3,0.7,0.7C6.3,12.2,6,12.5,5.7,12.5z"/>
		
			<radialGradient id="SVGID_00000129894875776942072390000014103734757679021985_" cx="4.4036" cy="10.5812" r="0.6678" gradientUnits="userSpaceOnUse">
			<stop  offset="0" style="stop-color:#A0CAE6"/>
			<stop  offset="1" style="stop-color:#2484C7"/>
		</radialGradient>
		
			<path style="fill:url(#SVGID_00000129894875776942072390000014103734757679021985_);stroke:#010101;stroke-width:5.792097e-02;stroke-miterlimit:10;" d="
			M4.4,11.2c-0.4,0-0.7-0.3-0.7-0.7c0-0.4,0.3-0.7,0.7-0.7c0.4,0,0.7,0.3,0.7,0.7C5.1,11,4.8,11.2,4.4,11.2z"/>
		
			<radialGradient id="SVGID_00000000919531992132805310000009003456476217478305_" cx="9.5006" cy="2.9754" r="0.6236" gradientUnits="userSpaceOnUse">
			<stop  offset="0" style="stop-color:#A0CAE6"/>
			<stop  offset="1" style="stop-color:#2484C7"/>
		</radialGradient>
		
			<path style="fill:url(#SVGID_00000000919531992132805310000009003456476217478305_);stroke:#010101;stroke-width:5.792097e-02;stroke-miterlimit:10;" d="
			M9.5,3.6C9.2,3.6,8.9,3.3,8.9,3c0-0.3,0.3-0.6,0.6-0.6c0.3,0,0.6,0.3,0.6,0.6C10.1,3.3,9.8,3.6,9.5,3.6z"/>
		
			<radialGradient id="SVGID_00000075841446107445758810000001808826994255542194_" cx="6.96" cy="2.9595" r="0.6206" gradientUnits="userSpaceOnUse">
			<stop  offset="0" style="stop-color:#A0CAE6"/>
			<stop  offset="1" style="stop-color:#2484C7"/>
		</radialGradient>
		
			<path style="fill:url(#SVGID_00000075841446107445758810000001808826994255542194_);stroke:#010101;stroke-width:5.792097e-02;stroke-miterlimit:10;" d="
			M7.6,3c0,0.3-0.3,0.6-0.6,0.6C6.6,3.6,6.3,3.3,6.3,3c0-0.3,0.3-0.6,0.6-0.6C7.3,2.3,7.6,2.6,7.6,3z"/>
		
			<radialGradient id="SVGID_00000164495768014316855920000012456484560167046798_" cx="13.3115" cy="6.7862" r="0.6165" gradientUnits="userSpaceOnUse">
			<stop  offset="0" style="stop-color:#A0CAE6"/>
			<stop  offset="1" style="stop-color:#2484C7"/>
		</radialGradient>
		
			<path style="fill:url(#SVGID_00000164495768014316855920000012456484560167046798_);stroke:#010101;stroke-width:5.792097e-02;stroke-miterlimit:10;" d="
			M13.9,6.8c0,0.3-0.3,0.6-0.6,0.6c-0.3,0-0.6-0.3-0.6-0.6c0-0.3,0.3-0.6,0.6-0.6C13.7,6.2,13.9,6.5,13.9,6.8z"/>
		
			<radialGradient id="SVGID_00000051345792611091032670000016298185237074395027_" cx="3.1492" cy="6.7704" r="0.6165" gradientUnits="userSpaceOnUse">
			<stop  offset="0" style="stop-color:#A0CAE6"/>
			<stop  offset="1" style="stop-color:#2484C7"/>
		</radialGradient>
		
			<path style="fill:url(#SVGID_00000051345792611091032670000016298185237074395027_);stroke:#010101;stroke-width:5.792097e-02;stroke-miterlimit:10;" d="
			M3.1,7.4c-0.3,0-0.6-0.3-0.6-0.6c0-0.3,0.3-0.6,0.6-0.6c0.3,0,0.6,0.3,0.6,0.6C3.8,7.1,3.5,7.4,3.1,7.4z"/>
		
			<radialGradient id="SVGID_00000066498038128699315250000010601424432817569948_" cx="13.2956" cy="9.3268" r="0.6123" gradientUnits="userSpaceOnUse">
			<stop  offset="0" style="stop-color:#A0CAE6"/>
			<stop  offset="1" style="stop-color:#2484C7"/>
		</radialGradient>
		
			<path style="fill:url(#SVGID_00000066498038128699315250000010601424432817569948_);stroke:#010101;stroke-width:5.792097e-02;stroke-miterlimit:10;" d="
			M12.7,9.3c0-0.3,0.3-0.6,0.6-0.6c0.3,0,0.6,0.3,0.6,0.6c0,0.3-0.3,0.6-0.6,0.6C13,9.9,12.7,9.7,12.7,9.3z"/>
		
			<radialGradient id="SVGID_00000135658572263880690120000006509195301340556207_" cx="3.1333" cy="9.311" r="0.6072" gradientUnits="userSpaceOnUse">
			<stop  offset="0" style="stop-color:#A0CAE6"/>
			<stop  offset="1" style="stop-color:#2484C7"/>
		</radialGradient>
		
			<path style="fill:url(#SVGID_00000135658572263880690120000006509195301340556207_);stroke:#010101;stroke-width:5.792097e-02;stroke-miterlimit:10;" d="
			M3.1,9.9c-0.3,0-0.6-0.3-0.6-0.6c0-0.3,0.3-0.6,0.6-0.6c0.3,0,0.6,0.3,0.6,0.6C3.7,9.7,3.5,9.9,3.1,9.9z"/>
		
			<radialGradient id="SVGID_00000070084499246580269320000013012746033618844304_" cx="9.4847" cy="13.1377" r="0.6025" gradientUnits="userSpaceOnUse">
			<stop  offset="0" style="stop-color:#A0CAE6"/>
			<stop  offset="1" style="stop-color:#2484C7"/>
		</radialGradient>
		
			<path style="fill:url(#SVGID_00000070084499246580269320000013012746033618844304_);stroke:#010101;stroke-width:5.792097e-02;stroke-miterlimit:10;" d="
			M10.1,13.1c0,0.3-0.3,0.6-0.6,0.6c-0.3,0-0.6-0.3-0.6-0.6c0-0.3,0.3-0.6,0.6-0.6C9.8,12.5,10.1,12.8,10.1,13.1z"/>
		
			<radialGradient id="SVGID_00000071523501323172063240000010660664962545986451_" cx="6.9442" cy="13.1218" r="0.6025" gradientUnits="userSpaceOnUse">
			<stop  offset="0" style="stop-color:#A0CAE6"/>
			<stop  offset="1" style="stop-color:#2484C7"/>
		</radialGradient>
		
			<path style="fill:url(#SVGID_00000071523501323172063240000010660664962545986451_);stroke:#010101;stroke-width:5.792097e-02;stroke-miterlimit:10;" d="
			M6.9,13.7c-0.3,0-0.6-0.3-0.6-0.6c0-0.3,0.3-0.6,0.6-0.6c0.3,0,0.6,0.3,0.6,0.6C7.5,13.5,7.3,13.7,6.9,13.7z"/>
		
			<radialGradient id="SVGID_00000052817749341025997460000015459709478270518195_" cx="8.2303" cy="1.705" r="0.5048" gradientUnits="userSpaceOnUse">
			<stop  offset="0" style="stop-color:#A0CAE6"/>
			<stop  offset="1" style="stop-color:#2484C7"/>
		</radialGradient>
		
			<path style="fill:url(#SVGID_00000052817749341025997460000015459709478270518195_);stroke:#010101;stroke-width:5.792097e-02;stroke-miterlimit:10;" d="
			M8.7,1.7c0,0.3-0.2,0.5-0.5,0.5C8,2.2,7.7,2,7.7,1.7c0-0.3,0.2-0.5,0.5-0.5C8.5,1.2,8.7,1.4,8.7,1.7z"/>
		
			<radialGradient id="SVGID_00000116913643577319443450000004732305876614316707_" cx="4.4195" cy="2.9595" r="0.4988" gradientUnits="userSpaceOnUse">
			<stop  offset="0" style="stop-color:#A0CAE6"/>
			<stop  offset="1" style="stop-color:#2484C7"/>
		</radialGradient>
		
			<path style="fill:url(#SVGID_00000116913643577319443450000004732305876614316707_);stroke:#010101;stroke-width:5.792097e-02;stroke-miterlimit:10;" d="
			M4.9,3c0,0.3-0.2,0.5-0.5,0.5C4.1,3.5,3.9,3.2,3.9,3c0-0.3,0.2-0.5,0.5-0.5C4.7,2.5,4.9,2.7,4.9,3z"/>
		
			<radialGradient id="SVGID_00000038373970230419747620000012700847945702672283_" cx="12.0412" cy="2.9754" r="0.4989" gradientUnits="userSpaceOnUse">
			<stop  offset="0" style="stop-color:#A0CAE6"/>
			<stop  offset="1" style="stop-color:#2484C7"/>
		</radialGradient>
		
			<path style="fill:url(#SVGID_00000038373970230419747620000012700847945702672283_);stroke:#010101;stroke-width:5.792097e-02;stroke-miterlimit:10;" d="
			M12,3.5c-0.3,0-0.5-0.2-0.5-0.5c0-0.3,0.2-0.5,0.5-0.5c0.3,0,0.5,0.2,0.5,0.5C12.5,3.3,12.3,3.5,12,3.5z"/>
		
			<radialGradient id="SVGID_00000173841735230462691510000001830350322096895111_" cx="13.3115" cy="4.2457" r="0.4989" gradientUnits="userSpaceOnUse">
			<stop  offset="0" style="stop-color:#A0CAE6"/>
			<stop  offset="1" style="stop-color:#2484C7"/>
		</radialGradient>
		
			<path style="fill:url(#SVGID_00000173841735230462691510000001830350322096895111_);stroke:#010101;stroke-width:5.792097e-02;stroke-miterlimit:10;" d="
			M13.3,3.7c0.3,0,0.5,0.2,0.5,0.5c0,0.3-0.2,0.5-0.5,0.5c-0.3,0-0.5-0.2-0.5-0.5C12.8,4,13,3.7,13.3,3.7z"/>
		
			<radialGradient id="SVGID_00000123398664957214375290000016296805096568759484_" cx="3.1492" cy="4.2298" r="0.4942" gradientUnits="userSpaceOnUse">
			<stop  offset="0" style="stop-color:#A0CAE6"/>
			<stop  offset="1" style="stop-color:#2484C7"/>
		</radialGradient>
		
			<path style="fill:url(#SVGID_00000123398664957214375290000016296805096568759484_);stroke:#010101;stroke-width:5.792097e-02;stroke-miterlimit:10;" d="
			M3.6,4.2c0,0.3-0.2,0.5-0.5,0.5c-0.3,0-0.5-0.2-0.5-0.5c0-0.3,0.2-0.5,0.5-0.5C3.4,3.7,3.6,4,3.6,4.2z"/>
		
			<radialGradient id="SVGID_00000066479338596306378240000008604406466955170493_" cx="14.5659" cy="8.0565" r="0.4918" gradientUnits="userSpaceOnUse">
			<stop  offset="0" style="stop-color:#A0CAE6"/>
			<stop  offset="1" style="stop-color:#2484C7"/>
		</radialGradient>
		
			<path style="fill:url(#SVGID_00000066479338596306378240000008604406466955170493_);stroke:#010101;stroke-width:5.792097e-02;stroke-miterlimit:10;" d="
			M15.1,8.1c0,0.3-0.2,0.5-0.5,0.5c-0.3,0-0.5-0.2-0.5-0.5c0-0.3,0.2-0.5,0.5-0.5C14.8,7.6,15.1,7.8,15.1,8.1z"/>
		
			<radialGradient id="SVGID_00000088096682587725501070000005121193283065644949_" cx="1.863" cy="8.0406" r="0.4886" gradientUnits="userSpaceOnUse">
			<stop  offset="0" style="stop-color:#A0CAE6"/>
			<stop  offset="1" style="stop-color:#2484C7"/>
		</radialGradient>
		
			<path style="fill:url(#SVGID_00000088096682587725501070000005121193283065644949_);stroke:#010101;stroke-width:5.792097e-02;stroke-miterlimit:10;" d="
			M1.9,8.5C1.6,8.5,1.4,8.3,1.4,8c0-0.3,0.2-0.5,0.5-0.5c0.3,0,0.5,0.2,0.5,0.5C2.4,8.3,2.1,8.5,1.9,8.5z"/>
		
			<radialGradient id="SVGID_00000055692608549415536700000002782383332561430913_" cx="13.2956" cy="11.8674" r="0.4822" gradientUnits="userSpaceOnUse">
			<stop  offset="0" style="stop-color:#A0CAE6"/>
			<stop  offset="1" style="stop-color:#2484C7"/>
		</radialGradient>
		
			<path style="fill:url(#SVGID_00000055692608549415536700000002782383332561430913_);stroke:#010101;stroke-width:5.792097e-02;stroke-miterlimit:10;" d="
			M13.8,11.9c0,0.3-0.2,0.5-0.5,0.5c-0.3,0-0.5-0.2-0.5-0.5c0-0.3,0.2-0.5,0.5-0.5C13.6,11.4,13.8,11.6,13.8,11.9z"/>
		
			<radialGradient id="SVGID_00000177477226829595586610000004023319755447666848_" cx="4.4036" cy="13.1218" r="0.4779" gradientUnits="userSpaceOnUse">
			<stop  offset="0" style="stop-color:#A0CAE6"/>
			<stop  offset="1" style="stop-color:#2484C7"/>
		</radialGradient>
		
			<path style="fill:url(#SVGID_00000177477226829595586610000004023319755447666848_);stroke:#010101;stroke-width:5.792097e-02;stroke-miterlimit:10;" d="
			M4.4,13.6c-0.3,0-0.5-0.2-0.5-0.5c0-0.3,0.2-0.5,0.5-0.5c0.3,0,0.5,0.2,0.5,0.5C4.9,13.4,4.7,13.6,4.4,13.6z"/>
		
			<radialGradient id="SVGID_00000041282130577140822040000015235773405211079858_" cx="12.0253" cy="13.1377" r="0.4779" gradientUnits="userSpaceOnUse">
			<stop  offset="0" style="stop-color:#A0CAE6"/>
			<stop  offset="1" style="stop-color:#2484C7"/>
		</radialGradient>
		
			<path style="fill:url(#SVGID_00000041282130577140822040000015235773405211079858_);stroke:#010101;stroke-width:5.792097e-02;stroke-miterlimit:10;" d="
			M12,12.7c0.3,0,0.5,0.2,0.5,0.5c0,0.3-0.2,0.5-0.5,0.5c-0.3,0-0.5-0.2-0.5-0.5C11.5,12.9,11.8,12.7,12,12.7z"/>
		
			<radialGradient id="SVGID_00000033367842561271470040000002309393772954763707_" cx="3.1333" cy="11.8515" r="0.4779" gradientUnits="userSpaceOnUse">
			<stop  offset="0" style="stop-color:#A0CAE6"/>
			<stop  offset="1" style="stop-color:#2484C7"/>
		</radialGradient>
		
			<path style="fill:url(#SVGID_00000033367842561271470040000002309393772954763707_);stroke:#010101;stroke-width:5.792097e-02;stroke-miterlimit:10;" d="
			M3.1,12.3c-0.3,0-0.5-0.2-0.5-0.5c0-0.3,0.2-0.5,0.5-0.5c0.3,0,0.5,0.2,0.5,0.5C3.6,12.1,3.4,12.3,3.1,12.3z"/>
		
			<radialGradient id="SVGID_00000022559491659412326480000007526626299711753911_" cx="8.2144" cy="14.408" r="0.4754" gradientUnits="userSpaceOnUse">
			<stop  offset="0" style="stop-color:#A0CAE6"/>
			<stop  offset="1" style="stop-color:#2484C7"/>
		</radialGradient>
		
			<path style="fill:url(#SVGID_00000022559491659412326480000007526626299711753911_);stroke:#010101;stroke-width:5.792097e-02;stroke-miterlimit:10;" d="
			M8.7,14.4c0,0.3-0.2,0.5-0.5,0.5c-0.3,0-0.5-0.2-0.5-0.5c0-0.3,0.2-0.5,0.5-0.5C8.5,13.9,8.7,14.2,8.7,14.4z"/>
		
			<radialGradient id="SVGID_00000128457062039129140150000008191519047682210467_" cx="10.7709" cy="1.7051" r="0.4443" gradientUnits="userSpaceOnUse">
			<stop  offset="0" style="stop-color:#A0CAE6"/>
			<stop  offset="1" style="stop-color:#2484C7"/>
		</radialGradient>
		
			<path style="fill:url(#SVGID_00000128457062039129140150000008191519047682210467_);stroke:#010101;stroke-width:5.792097e-02;stroke-miterlimit:10;" d="
			M11.2,1.7c0,0.2-0.2,0.4-0.4,0.4c-0.2,0-0.4-0.2-0.4-0.4c0-0.2,0.2-0.4,0.4-0.4C11,1.3,11.2,1.5,11.2,1.7z"/>
		
			<radialGradient id="SVGID_00000180349251185695793490000010976157325538430612_" cx="5.6898" cy="1.6892" r="0.4408" gradientUnits="userSpaceOnUse">
			<stop  offset="0" style="stop-color:#A0CAE6"/>
			<stop  offset="1" style="stop-color:#2484C7"/>
		</radialGradient>
		
			<path style="fill:url(#SVGID_00000180349251185695793490000010976157325538430612_);stroke:#010101;stroke-width:5.792097e-02;stroke-miterlimit:10;" d="
			M6.1,1.7c0,0.2-0.2,0.4-0.4,0.4c-0.2,0-0.4-0.2-0.4-0.4c0-0.2,0.2-0.4,0.4-0.4C5.9,1.2,6.1,1.4,6.1,1.7z"/>
		
			<radialGradient id="SVGID_00000080903335010032677050000004388741907536251785_" cx="14.5659" cy="10.5972" r="0.4408" gradientUnits="userSpaceOnUse">
			<stop  offset="0" style="stop-color:#A0CAE6"/>
			<stop  offset="1" style="stop-color:#2484C7"/>
		</radialGradient>
		
			<path style="fill:url(#SVGID_00000080903335010032677050000004388741907536251785_);stroke:#010101;stroke-width:5.792097e-02;stroke-miterlimit:10;" d="
			M15,10.6c0,0.2-0.2,0.4-0.4,0.4c-0.2,0-0.4-0.2-0.4-0.4c0-0.2,0.2-0.4,0.4-0.4C14.8,10.2,15,10.4,15,10.6z"/>
		
			<radialGradient id="SVGID_00000096745612399920632970000013545467170818058396_" cx="5.6739" cy="14.3921" r="0.4408" gradientUnits="userSpaceOnUse">
			<stop  offset="0" style="stop-color:#A0CAE6"/>
			<stop  offset="1" style="stop-color:#2484C7"/>
		</radialGradient>
		
			<path style="fill:url(#SVGID_00000096745612399920632970000013545467170818058396_);stroke:#010101;stroke-width:5.792097e-02;stroke-miterlimit:10;" d="
			M5.7,14.8c-0.2,0-0.4-0.2-0.4-0.4c0-0.2,0.2-0.4,0.4-0.4c0.2,0,0.4,0.2,0.4,0.4C6.1,14.6,5.9,14.8,5.7,14.8z"/>
		
			<radialGradient id="SVGID_00000064331981576918090570000017886395560824402862_" cx="10.755" cy="14.408" r="0.4408" gradientUnits="userSpaceOnUse">
			<stop  offset="0" style="stop-color:#A0CAE6"/>
			<stop  offset="1" style="stop-color:#2484C7"/>
		</radialGradient>
		
			<path style="fill:url(#SVGID_00000064331981576918090570000017886395560824402862_);stroke:#010101;stroke-width:5.792097e-02;stroke-miterlimit:10;" d="
			M10.8,14.8c-0.2,0-0.4-0.2-0.4-0.4c0-0.2,0.2-0.4,0.4-0.4c0.2,0,0.4,0.2,0.4,0.4C11.2,14.6,11,14.8,10.8,14.8z"/>
		
			<radialGradient id="SVGID_00000006666544183545441600000005782774588474314146_" cx="14.5818" cy="5.5159" r="0.4408" gradientUnits="userSpaceOnUse">
			<stop  offset="0" style="stop-color:#A0CAE6"/>
			<stop  offset="1" style="stop-color:#2484C7"/>
		</radialGradient>
		
			<path style="fill:url(#SVGID_00000006666544183545441600000005782774588474314146_);stroke:#010101;stroke-width:5.792097e-02;stroke-miterlimit:10;" d="
			M15,5.5C15,5.8,14.8,6,14.6,6c-0.2,0-0.4-0.2-0.4-0.4c0-0.2,0.2-0.4,0.4-0.4C14.8,5.1,15,5.3,15,5.5z"/>
		
			<radialGradient id="SVGID_00000091012772320431155150000006383483695806213249_" cx="1.863" cy="10.5813" r="0.4337" gradientUnits="userSpaceOnUse">
			<stop  offset="0" style="stop-color:#A0CAE6"/>
			<stop  offset="1" style="stop-color:#2484C7"/>
		</radialGradient>
		
			<path style="fill:url(#SVGID_00000091012772320431155150000006383483695806213249_);stroke:#010101;stroke-width:5.792097e-02;stroke-miterlimit:10;" d="
			M1.9,11c-0.2,0-0.4-0.2-0.4-0.4c0-0.2,0.2-0.4,0.4-0.4c0.2,0,0.4,0.2,0.4,0.4C2.3,10.8,2.1,11,1.9,11z"/>
		
			<radialGradient id="SVGID_00000117641908026469567900000010103735364625179824_" cx="1.8789" cy="5.5001" r="0.4337" gradientUnits="userSpaceOnUse">
			<stop  offset="0" style="stop-color:#A0CAE6"/>
			<stop  offset="1" style="stop-color:#2484C7"/>
		</radialGradient>
		
			<path style="fill:url(#SVGID_00000117641908026469567900000010103735364625179824_);stroke:#010101;stroke-width:5.792097e-02;stroke-miterlimit:10;" d="
			M2.3,5.5c0,0.2-0.2,0.4-0.4,0.4c-0.2,0-0.4-0.2-0.4-0.4c0-0.2,0.2-0.4,0.4-0.4C2.1,5.1,2.3,5.3,2.3,5.5z"/>
		
			<radialGradient id="SVGID_00000075852657961818221680000011337817430711415455_" cx="8.2144" cy="8.0565" r="1.5003" gradientUnits="userSpaceOnUse">
			<stop  offset="0" style="stop-color:#A0CAE6"/>
			<stop  offset="1" style="stop-color:#2484C7"/>
		</radialGradient>
		
			<path style="fill:url(#SVGID_00000075852657961818221680000011337817430711415455_);stroke:#010101;stroke-width:5.792097e-02;stroke-miterlimit:10;" d="
			M8.2,6.6c0.8,0,1.5,0.7,1.5,1.5c0,0.8-0.7,1.5-1.5,1.5C7.4,9.6,6.7,8.9,6.7,8C6.7,7.2,7.4,6.6,8.2,6.6z"/>
	</g>
	
		<radialGradient id="SVGID_00000067199409526514899580000013236612413610623637_" cx="8.216" cy="18.8773" r="5.3834" gradientUnits="userSpaceOnUse">
		<stop  offset="0" style="stop-color:#A0CAE6"/>
		<stop  offset="1" style="stop-color:#2484C7"/>
	</radialGradient>
	
		<path style="fill:url(#SVGID_00000067199409526514899580000013236612413610623637_);stroke:#010101;stroke-width:5.792097e-02;stroke-miterlimit:10;" d="
		M8.2,16.3c-2.1,0.1-4.3-0.4-6.5-1.4c0,0.1,0.1,0.2,0.1,0.3c0.3,0.6,0.7,1.1,1.3,1.3c0.8,0.4,1.6,0.8,2.4,1.2
		c1.1,0.5,1.6,1.4,1.6,2.6c0,0.8,0,1.5,0,2.3c0,0.3,0.1,0.3,0.3,0.3c0.3,0,0.5,0,0.8,0c0.3,0,0.5,0,0.8,0c0.3,0,0.3-0.1,0.3-0.3
		c0-0.8,0-1.5,0-2.3c0-1.2,0.5-2.1,1.6-2.6c0.8-0.4,1.6-0.8,2.4-1.2c0.6-0.3,1-0.7,1.3-1.3c0-0.1,0.1-0.2,0.1-0.3
		C12.5,15.9,10.3,16.4,8.2,16.3z"/>
</g>
</svg>
