<?xml version="1.0" encoding="utf-8"?>
<!-- Generator: Adobe Illustrator 27.0.1, SVG Export Plug-In . SVG Version: 6.00 Build 0)  -->
<svg version="1.1" id="Layer_1" xmlns="http://www.w3.org/2000/svg" xmlns:xlink="http://www.w3.org/1999/xlink" x="0px" y="0px"
	 viewBox="0 0 108.9 53.4" style="enable-background:new 0 0 108.9 53.4;" xml:space="preserve">
<style type="text/css">
	.st0{fill:#FFFFFF;stroke:#231F20;stroke-width:7.533452e-02;stroke-miterlimit:10;}
	.st1{font-family:'ShreeDev0714-Bold';}
	.st2{font-size:38.5713px;}
	.st3{letter-spacing:4;}
	.st4{fill:#2484C7;stroke:#231F20;stroke-width:7.533452e-02;stroke-miterlimit:10;}
	.st5{font-size:19.2856px;}
	.st6{fill:url(#SVGID_1_);stroke:#231F20;stroke-width:7.533452e-02;stroke-miterlimit:10;}
	
		.st7{fill:url(#SVGID_00000142154891090291008050000008470629623655441571_);stroke:#231F20;stroke-width:7.533452e-02;stroke-miterlimit:10;}
	
		.st8{fill:url(#SVGID_00000056398945057544808600000000157689058130142102_);stroke:#231F20;stroke-width:7.533452e-02;stroke-miterlimit:10;}
	
		.st9{fill:url(#SVGID_00000047057217476298599290000008173898585072752006_);stroke:#231F20;stroke-width:7.533452e-02;stroke-miterlimit:10;}
	
		.st10{fill:url(#SVGID_00000049935395775070847760000001770541354207978911_);stroke:#231F20;stroke-width:7.533452e-02;stroke-miterlimit:10;}
	
		.st11{fill:url(#SVGID_00000049914873418702476880000013917065630177448083_);stroke:#231F20;stroke-width:7.533452e-02;stroke-miterlimit:10;}
</style>
<g>
	<circle class="st0" cx="11.3" cy="22.4" r="10.5"/>
	<path class="st0" d="M11.3,32.9c-2.8,0.1-5.6-0.5-8.4-1.9c0,0.2,0.1,0.3,0.1,0.4c0.4,0.8,0.9,1.4,1.7,1.8c1,0.5,2,1,3.1,1.5
		c1.4,0.7,2.1,1.8,2.1,3.4c0,1,0,2,0,3c0,0.3,0.1,0.5,0.4,0.4c0.3,0,0.7,0,1,0c0.3,0,0.7,0,1,0c0.3,0,0.5-0.1,0.4-0.4c0-1,0-2,0-3
		c0-1.6,0.7-2.7,2.1-3.4c1-0.5,2-1,3.1-1.5c0.8-0.4,1.3-1,1.7-1.8c0-0.1,0.1-0.2,0.1-0.4C16.8,32.4,14,33,11.3,32.9z"/>
	<text transform="matrix(1 0 0 1 26.9999 41.507)" class="st0 st1 st2 st3">ACE</text>
	<text transform="matrix(1 0 0 1 3.8051 29.841)" class="st4 st1 st5">1</text>
	<radialGradient id="SVGID_1_" cx="6.6172" cy="14.8499" r="0.8862" gradientUnits="userSpaceOnUse">
		<stop  offset="0" style="stop-color:#9FC9E5"/>
		<stop  offset="1" style="stop-color:#2383C5"/>
	</radialGradient>
	<path class="st6" d="M7.5,14.9c0,0.5-0.4,0.9-0.9,0.9c-0.5,0-0.9-0.4-0.9-0.9c0-0.5,0.4-0.9,0.9-0.9C7.1,14,7.5,14.4,7.5,14.9z"/>
	
		<radialGradient id="SVGID_00000145052476544787606070000000927350542538075805_" cx="4.9035" cy="16.3373" r="0.6488" gradientUnits="userSpaceOnUse">
		<stop  offset="0" style="stop-color:#9FC9E5"/>
		<stop  offset="1" style="stop-color:#2383C5"/>
	</radialGradient>
	
		<path style="fill:url(#SVGID_00000145052476544787606070000000927350542538075805_);stroke:#231F20;stroke-width:7.533452e-02;stroke-miterlimit:10;" d="
		M5.6,16.3c0,0.4-0.3,0.6-0.6,0.7c-0.4,0-0.6-0.3-0.7-0.6c0-0.4,0.3-0.6,0.6-0.7C5.3,15.7,5.6,16,5.6,16.3z"/>
	
		<radialGradient id="SVGID_00000169532794837470340840000007503032581974816906_" cx="3.8619" cy="17.8614" r="0.564" gradientUnits="userSpaceOnUse">
		<stop  offset="0" style="stop-color:#9FC9E5"/>
		<stop  offset="1" style="stop-color:#2383C5"/>
	</radialGradient>
	
		<path style="fill:url(#SVGID_00000169532794837470340840000007503032581974816906_);stroke:#231F20;stroke-width:7.533452e-02;stroke-miterlimit:10;" d="
		M4.4,17.9c0,0.3-0.2,0.6-0.6,0.6c-0.3,0-0.6-0.2-0.6-0.6c0-0.3,0.2-0.6,0.6-0.6C4.2,17.3,4.4,17.5,4.4,17.9z"/>
	
		<radialGradient id="SVGID_00000168834239553463348350000004593102121882407871_" cx="16.0095" cy="30.2472" r="0.8862" gradientUnits="userSpaceOnUse">
		<stop  offset="0" style="stop-color:#9FC9E5"/>
		<stop  offset="1" style="stop-color:#2383C5"/>
	</radialGradient>
	
		<path style="fill:url(#SVGID_00000168834239553463348350000004593102121882407871_);stroke:#231F20;stroke-width:7.533452e-02;stroke-miterlimit:10;" d="
		M16.9,30.2c0,0.5-0.4,0.9-0.9,0.9c-0.5,0-0.9-0.4-0.9-0.9c0-0.5,0.4-0.9,0.9-0.9C16.5,29.4,16.9,29.8,16.9,30.2z"/>
	
		<radialGradient id="SVGID_00000119825946132469489820000005360297593364627891_" cx="17.6382" cy="29.0646" r="0.6488" gradientUnits="userSpaceOnUse">
		<stop  offset="0" style="stop-color:#9FC9E5"/>
		<stop  offset="1" style="stop-color:#2383C5"/>
	</radialGradient>
	
		<path style="fill:url(#SVGID_00000119825946132469489820000005360297593364627891_);stroke:#231F20;stroke-width:7.533452e-02;stroke-miterlimit:10;" d="
		M18.3,29.1c0,0.4-0.3,0.6-0.6,0.7c-0.4,0-0.6-0.3-0.7-0.6c0-0.4,0.3-0.6,0.6-0.7C18,28.4,18.3,28.7,18.3,29.1z"/>
	
		<radialGradient id="SVGID_00000116203522104520628870000013516705256146504101_" cx="18.8779" cy="27.635" r="0.564" gradientUnits="userSpaceOnUse">
		<stop  offset="0" style="stop-color:#9FC9E5"/>
		<stop  offset="1" style="stop-color:#2383C5"/>
	</radialGradient>
	
		<path style="fill:url(#SVGID_00000116203522104520628870000013516705256146504101_);stroke:#231F20;stroke-width:7.533452e-02;stroke-miterlimit:10;" d="
		M19.4,27.6c0,0.3-0.2,0.6-0.6,0.6c-0.3,0-0.6-0.2-0.6-0.6c0-0.3,0.2-0.6,0.6-0.6C19.2,27.1,19.4,27.3,19.4,27.6z"/>
</g>
</svg>
