<?xml version="1.0" encoding="utf-8"?>
<!-- Generator: Adobe Illustrator 27.0.1, SVG Export Plug-In . SVG Version: 6.00 Build 0)  -->
<svg version="1.1" id="Layer_1" xmlns="http://www.w3.org/2000/svg" xmlns:xlink="http://www.w3.org/1999/xlink" x="0px" y="0px"
	 viewBox="0 0 504.6 192.3" style="enable-background:new 0 0 504.6 192.3;" xml:space="preserve">
<style type="text/css">
	.st0{fill:#A0CAE6;stroke:#FFFFFF;stroke-miterlimit:10;}
	.st1{fill:#F2F2F2;stroke:#509DC5;stroke-width:0.5;stroke-miterlimit:10;}
	.st2{fill:url(#SVGID_1_);stroke:#010101;stroke-width:0.25;stroke-miterlimit:10;}
	
		.st3{fill:url(#SVGID_00000158738615074160567200000007247061352600914845_);stroke:#010101;stroke-width:0.25;stroke-miterlimit:10;}
	
		.st4{fill:url(#SVGID_00000176742952843637247810000008413582396488139158_);stroke:#010101;stroke-width:0.25;stroke-miterlimit:10;}
	
		.st5{fill:url(#SVGID_00000015331010578255649520000007287008215461345945_);stroke:#010101;stroke-width:0.25;stroke-miterlimit:10;}
	
		.st6{fill:url(#SVGID_00000174570366481262848090000005223566866017378716_);stroke:#010101;stroke-width:0.25;stroke-miterlimit:10;}
	
		.st7{fill:url(#SVGID_00000037691244057643117080000016580636251849554349_);stroke:#010101;stroke-width:0.25;stroke-miterlimit:10;}
	
		.st8{fill:url(#SVGID_00000064324481686763675330000006774069156017629110_);stroke:#010101;stroke-width:0.25;stroke-miterlimit:10;}
	
		.st9{fill:url(#SVGID_00000026154321191374422810000006738154235240403116_);stroke:#010101;stroke-width:0.25;stroke-miterlimit:10;}
	
		.st10{fill:url(#SVGID_00000103241969044666537940000015942451224021901198_);stroke:#010101;stroke-width:0.25;stroke-miterlimit:10;}
	
		.st11{fill:url(#SVGID_00000127026036320231545810000015667000124775415206_);stroke:#010101;stroke-width:0.25;stroke-miterlimit:10;}
	
		.st12{fill:url(#SVGID_00000013173221203769032920000016385240957250683324_);stroke:#010101;stroke-width:0.25;stroke-miterlimit:10;}
	
		.st13{fill:url(#SVGID_00000064324311891022933340000012814890177708614839_);stroke:#010101;stroke-width:0.25;stroke-miterlimit:10;}
	
		.st14{fill:url(#SVGID_00000016043688924361494300000013960331460501631158_);stroke:#010101;stroke-width:0.25;stroke-miterlimit:10;}
	
		.st15{fill:url(#SVGID_00000129192444796898106260000005662686673533218749_);stroke:#010101;stroke-width:0.25;stroke-miterlimit:10;}
	
		.st16{fill:url(#SVGID_00000151533311857985820070000003408505312171588518_);stroke:#010101;stroke-width:0.25;stroke-miterlimit:10;}
	
		.st17{fill:url(#SVGID_00000001649129698828406400000007906474749501993133_);stroke:#010101;stroke-width:0.25;stroke-miterlimit:10;}
	
		.st18{fill:url(#SVGID_00000176039576615406422950000017841014269458445724_);stroke:#010101;stroke-width:0.25;stroke-miterlimit:10;}
	
		.st19{fill:url(#SVGID_00000064354149275598120390000005618967311834816157_);stroke:#010101;stroke-width:0.25;stroke-miterlimit:10;}
	
		.st20{fill:url(#SVGID_00000164511273759302129030000018323762219443447454_);stroke:#010101;stroke-width:0.25;stroke-miterlimit:10;}
	
		.st21{fill:url(#SVGID_00000135663338529716848980000002729198995127871892_);stroke:#010101;stroke-width:0.25;stroke-miterlimit:10;}
	
		.st22{fill:url(#SVGID_00000065071534298901957890000010793419304588121278_);stroke:#010101;stroke-width:0.25;stroke-miterlimit:10;}
	
		.st23{fill:url(#SVGID_00000151528543591493139870000005638967918299874198_);stroke:#010101;stroke-width:0.25;stroke-miterlimit:10;}
	
		.st24{fill:url(#SVGID_00000135656276499446760300000012968775689042642560_);stroke:#010101;stroke-width:0.25;stroke-miterlimit:10;}
	
		.st25{fill:url(#SVGID_00000152223279289224218800000011408636059511602103_);stroke:#010101;stroke-width:0.25;stroke-miterlimit:10;}
	
		.st26{fill:url(#SVGID_00000085225589555779692860000003688429548494183849_);stroke:#010101;stroke-width:0.25;stroke-miterlimit:10;}
	
		.st27{fill:url(#SVGID_00000147207211388937703880000016694104806527858564_);stroke:#010101;stroke-width:0.25;stroke-miterlimit:10;}
	
		.st28{fill:url(#SVGID_00000070840614234089324810000012180137813040374420_);stroke:#010101;stroke-width:0.25;stroke-miterlimit:10;}
	
		.st29{fill:url(#SVGID_00000043438399712818147580000002056556193957631672_);stroke:#010101;stroke-width:0.25;stroke-miterlimit:10;}
	
		.st30{fill:url(#SVGID_00000047773506257837664050000007783141902782602890_);stroke:#010101;stroke-width:0.25;stroke-miterlimit:10;}
	
		.st31{fill:url(#SVGID_00000163754713570650862320000012141226221208503990_);stroke:#010101;stroke-width:0.25;stroke-miterlimit:10;}
	
		.st32{fill:url(#SVGID_00000137106863391008512540000012632084807682523035_);stroke:#010101;stroke-width:0.25;stroke-miterlimit:10;}
	
		.st33{fill:url(#SVGID_00000140011121302368486310000010146051251348486569_);stroke:#010101;stroke-width:0.25;stroke-miterlimit:10;}
	
		.st34{fill:url(#SVGID_00000091012081593486994420000000127540784091330493_);stroke:#010101;stroke-width:0.25;stroke-miterlimit:10;}
	
		.st35{fill:url(#SVGID_00000141443269915487979360000010980576288528157314_);stroke:#010101;stroke-width:0.25;stroke-miterlimit:10;}
	
		.st36{fill:url(#SVGID_00000153699933011918451230000004945351096609090707_);stroke:#010101;stroke-width:0.25;stroke-miterlimit:10;}
	
		.st37{fill:url(#SVGID_00000096759621627480393800000000909122652004407479_);stroke:#010101;stroke-width:0.25;stroke-miterlimit:10;}
	
		.st38{fill:url(#SVGID_00000090263944913676670880000017657231813593352109_);stroke:#010101;stroke-width:0.25;stroke-miterlimit:10;}
	
		.st39{fill:url(#SVGID_00000142158816810986304700000004114151094651411130_);stroke:#010101;stroke-width:0.25;stroke-miterlimit:10;}
	
		.st40{fill:url(#SVGID_00000041978269451226849970000010639967203167145100_);stroke:#010101;stroke-width:0.25;stroke-miterlimit:10;}
	
		.st41{fill:url(#SVGID_00000155129737330675011700000017402897199516879533_);stroke:#010101;stroke-width:0.25;stroke-miterlimit:10;}
	
		.st42{fill:url(#SVGID_00000172427105227533865060000008598523947560298653_);stroke:#010101;stroke-width:0.25;stroke-miterlimit:10;}
	
		.st43{fill:url(#SVGID_00000036968881787817603160000003082261189526279093_);stroke:#010101;stroke-width:0.25;stroke-miterlimit:10;}
	
		.st44{fill:url(#SVGID_00000071521642219891027140000008338734249923218607_);stroke:#010101;stroke-width:0.25;stroke-miterlimit:10;}
	
		.st45{fill:url(#SVGID_00000156562255192506258440000014594594059066318004_);stroke:#010101;stroke-width:0.25;stroke-miterlimit:10;}
	
		.st46{fill:url(#SVGID_00000031920349971842251630000006606968606333630093_);stroke:#010101;stroke-width:0.25;stroke-miterlimit:10;}
	
		.st47{fill:url(#SVGID_00000162338239207981720770000010236641179128284803_);stroke:#010101;stroke-width:0.25;stroke-miterlimit:10;}
	
		.st48{fill:url(#SVGID_00000077292393274717284390000006925061921419347095_);stroke:#010101;stroke-width:0.25;stroke-miterlimit:10;}
	
		.st49{fill:url(#SVGID_00000005988841339224794860000010877624212524907947_);stroke:#010101;stroke-width:0.25;stroke-miterlimit:10;}
	
		.st50{fill:url(#SVGID_00000020377745410971703900000012144424175005087162_);stroke:#010101;stroke-width:0.25;stroke-miterlimit:10;}
	
		.st51{fill:url(#SVGID_00000179639629832268849500000015457145823606359997_);stroke:#010101;stroke-width:0.25;stroke-miterlimit:10;}
	.st52{fill:none;stroke:#010101;stroke-width:0.5;stroke-miterlimit:10;}
	.st53{font-family:'ShreeDev0714-Bold';}
	.st54{font-size:130px;}
	.st55{fill:url(#SVGID_00000072280426680762644360000005969885884184696495_);}
	.st56{fill:url(#SVGID_00000028294842858086133420000017435000452961586061_);}
	.st57{fill:url(#SVGID_00000109748369449041709890000008060318695943603112_);}
	.st58{fill:#FFFFFF;}
	.st59{font-family:'ShreeDev0714';}
	.st60{font-size:36px;}
	.st61{fill:none;stroke:#FFFFFF;stroke-width:2;stroke-miterlimit:10;}
	.st62{font-family:'ShreeDev0714-Italic';}
	.st63{font-size:18px;}
</style>
<g>
	<g>
		<g>
			<circle class="st0" cx="127.8" cy="37.9" r="34.8"/>
			<circle class="st1" cx="127.8" cy="37.9" r="33.4"/>
			<radialGradient id="SVGID_1_" cx="133.3111" cy="26.3084" r="3.562" gradientUnits="userSpaceOnUse">
				<stop  offset="0" style="stop-color:#A0CAE6"/>
				<stop  offset="1" style="stop-color:#2484C7"/>
			</radialGradient>
			<path class="st2" d="M133.3,29.9c-2,0-3.6-1.6-3.6-3.6c0-2,1.6-3.5,3.6-3.5c2,0,3.6,1.6,3.6,3.6
				C136.9,28.3,135.3,29.9,133.3,29.9z"/>
			
				<radialGradient id="SVGID_00000109008810897720304880000002572612020056710312_" cx="122.3453" cy="26.2399" r="3.555" gradientUnits="userSpaceOnUse">
				<stop  offset="0" style="stop-color:#A0CAE6"/>
				<stop  offset="1" style="stop-color:#2484C7"/>
			</radialGradient>
			
				<path style="fill:url(#SVGID_00000109008810897720304880000002572612020056710312_);stroke:#010101;stroke-width:0.25;stroke-miterlimit:10;" d="
				M122.4,22.7c2,0,3.5,1.6,3.5,3.6c0,2-1.6,3.5-3.6,3.5c-2,0-3.5-1.6-3.5-3.6C118.8,24.3,120.4,22.7,122.4,22.7z"/>
			
				<radialGradient id="SVGID_00000047743658830532662760000007288349313602096021_" cx="138.7939" cy="31.7913" r="3.5452" gradientUnits="userSpaceOnUse">
				<stop  offset="0" style="stop-color:#A0CAE6"/>
				<stop  offset="1" style="stop-color:#2484C7"/>
			</radialGradient>
			
				<path style="fill:url(#SVGID_00000047743658830532662760000007288349313602096021_);stroke:#010101;stroke-width:0.25;stroke-miterlimit:10;" d="
				M142.3,31.8c0,2-1.7,3.6-3.6,3.5c-2,0-3.5-1.7-3.5-3.6c0-2,1.7-3.6,3.6-3.5C140.8,28.3,142.4,29.9,142.3,31.8z"/>
			
				<radialGradient id="SVGID_00000052071393890713460110000006755437048489041570_" cx="116.8624" cy="31.7228" r="3.5453" gradientUnits="userSpaceOnUse">
				<stop  offset="0" style="stop-color:#A0CAE6"/>
				<stop  offset="1" style="stop-color:#2484C7"/>
			</radialGradient>
			
				<path style="fill:url(#SVGID_00000052071393890713460110000006755437048489041570_);stroke:#010101;stroke-width:0.25;stroke-miterlimit:10;" d="
				M120.4,31.8c0,2-1.7,3.6-3.6,3.5c-2-0.1-3.5-1.7-3.5-3.6c0-2,1.7-3.6,3.6-3.5C118.9,28.2,120.4,29.8,120.4,31.8z"/>
			
				<radialGradient id="SVGID_00000120525737126647286280000017729639869485638834_" cx="138.7254" cy="42.7571" r="3.5124" gradientUnits="userSpaceOnUse">
				<stop  offset="0" style="stop-color:#A0CAE6"/>
				<stop  offset="1" style="stop-color:#2484C7"/>
			</radialGradient>
			
				<path style="fill:url(#SVGID_00000120525737126647286280000017729639869485638834_);stroke:#010101;stroke-width:0.25;stroke-miterlimit:10;" d="
				M142.2,42.8c0,2-1.6,3.5-3.5,3.5c-1.9,0-3.5-1.6-3.5-3.5c0-2,1.6-3.5,3.5-3.5C140.7,39.3,142.2,40.8,142.2,42.8z"/>
			
				<radialGradient id="SVGID_00000143574850264184585280000013500148435849765298_" cx="116.7939" cy="42.6885" r="3.5026" gradientUnits="userSpaceOnUse">
				<stop  offset="0" style="stop-color:#A0CAE6"/>
				<stop  offset="1" style="stop-color:#2484C7"/>
			</radialGradient>
			
				<path style="fill:url(#SVGID_00000143574850264184585280000013500148435849765298_);stroke:#010101;stroke-width:0.25;stroke-miterlimit:10;" d="
				M116.8,39.2c1.9,0,3.5,1.6,3.5,3.5c0,1.9-1.6,3.5-3.5,3.5c-1.9,0-3.5-1.6-3.5-3.5C113.3,40.7,114.8,39.2,116.8,39.2z"/>
			
				<radialGradient id="SVGID_00000175324866418127297550000017570001915015996595_" cx="133.2425" cy="48.2399" r="3.4959" gradientUnits="userSpaceOnUse">
				<stop  offset="0" style="stop-color:#A0CAE6"/>
				<stop  offset="1" style="stop-color:#2484C7"/>
			</radialGradient>
			
				<path style="fill:url(#SVGID_00000175324866418127297550000017570001915015996595_);stroke:#010101;stroke-width:0.25;stroke-miterlimit:10;" d="
				M133.2,51.7c-1.9,0-3.5-1.6-3.5-3.5c0-1.9,1.6-3.5,3.5-3.5c1.9,0,3.5,1.6,3.5,3.5C136.7,50.2,135.2,51.7,133.2,51.7z"/>
			
				<radialGradient id="SVGID_00000058574925402186125650000008088292403751878832_" cx="122.2768" cy="48.1714" r="3.4959" gradientUnits="userSpaceOnUse">
				<stop  offset="0" style="stop-color:#A0CAE6"/>
				<stop  offset="1" style="stop-color:#2484C7"/>
			</radialGradient>
			
				<path style="fill:url(#SVGID_00000058574925402186125650000008088292403751878832_);stroke:#010101;stroke-width:0.25;stroke-miterlimit:10;" d="
				M122.3,44.7c1.9,0,3.5,1.6,3.5,3.5c0,1.9-1.6,3.5-3.5,3.5c-1.9,0-3.5-1.6-3.5-3.5C118.8,46.2,120.4,44.7,122.3,44.7z"/>
			
				<radialGradient id="SVGID_00000054984529303760981880000003935794637433725868_" cx="127.8282" cy="20.8256" r="3.2346" gradientUnits="userSpaceOnUse">
				<stop  offset="0" style="stop-color:#A0CAE6"/>
				<stop  offset="1" style="stop-color:#2484C7"/>
			</radialGradient>
			
				<path style="fill:url(#SVGID_00000054984529303760981880000003935794637433725868_);stroke:#010101;stroke-width:0.25;stroke-miterlimit:10;" d="
				M131.1,20.8c0,1.8-1.4,3.2-3.2,3.2c-1.8,0-3.2-1.5-3.2-3.3c0-1.8,1.4-3.2,3.2-3.2C129.6,17.6,131.1,19,131.1,20.8z"/>
			
				<radialGradient id="SVGID_00000105391775349075079180000001706619121745740943_" cx="144.2083" cy="37.2742" r="3.211" gradientUnits="userSpaceOnUse">
				<stop  offset="0" style="stop-color:#A0CAE6"/>
				<stop  offset="1" style="stop-color:#2484C7"/>
			</radialGradient>
			
				<path style="fill:url(#SVGID_00000105391775349075079180000001706619121745740943_);stroke:#010101;stroke-width:0.25;stroke-miterlimit:10;" d="
				M144.2,34.1c1.8,0,3.2,1.4,3.2,3.2c0,1.8-1.5,3.2-3.2,3.2c-1.8,0-3.2-1.5-3.2-3.2C141,35.5,142.4,34.1,144.2,34.1z"/>
			
				<radialGradient id="SVGID_00000067227608110873633550000013907770121683306937_" cx="111.3109" cy="37.2056" r="3.1983" gradientUnits="userSpaceOnUse">
				<stop  offset="0" style="stop-color:#A0CAE6"/>
				<stop  offset="1" style="stop-color:#2484C7"/>
			</radialGradient>
			
				<path style="fill:url(#SVGID_00000067227608110873633550000013907770121683306937_);stroke:#010101;stroke-width:0.25;stroke-miterlimit:10;" d="
				M111.3,34c1.8,0,3.2,1.4,3.2,3.2c0,1.8-1.4,3.2-3.2,3.2c-1.7,0-3.2-1.4-3.2-3.2C108.1,35.5,109.5,34,111.3,34z"/>
			
				<radialGradient id="SVGID_00000015312978054907034810000009269586797275980730_" cx="127.7597" cy="53.7228" r="3.1558" gradientUnits="userSpaceOnUse">
				<stop  offset="0" style="stop-color:#A0CAE6"/>
				<stop  offset="1" style="stop-color:#2484C7"/>
			</radialGradient>
			
				<path style="fill:url(#SVGID_00000015312978054907034810000009269586797275980730_);stroke:#010101;stroke-width:0.25;stroke-miterlimit:10;" d="
				M127.8,56.9c-1.7,0-3.2-1.4-3.2-3.2c0-1.7,1.4-3.2,3.2-3.2c1.7,0,3.2,1.4,3.2,3.2C130.9,55.5,129.5,56.9,127.8,56.9z"/>
			
				<radialGradient id="SVGID_00000137852795325990556950000003682436989187427503_" cx="116.8624" cy="20.757" r="2.9483" gradientUnits="userSpaceOnUse">
				<stop  offset="0" style="stop-color:#A0CAE6"/>
				<stop  offset="1" style="stop-color:#2484C7"/>
			</radialGradient>
			
				<path style="fill:url(#SVGID_00000137852795325990556950000003682436989187427503_);stroke:#010101;stroke-width:0.25;stroke-miterlimit:10;" d="
				M116.9,23.7c-1.6,0-3-1.3-3-3c0-1.6,1.3-2.9,2.9-2.9c1.6,0,3,1.3,3,3C119.8,22.4,118.5,23.7,116.9,23.7z"/>
			
				<radialGradient id="SVGID_00000140011920822581031660000011492878936320014772_" cx="138.7939" cy="20.8256" r="2.9483" gradientUnits="userSpaceOnUse">
				<stop  offset="0" style="stop-color:#A0CAE6"/>
				<stop  offset="1" style="stop-color:#2484C7"/>
			</radialGradient>
			
				<path style="fill:url(#SVGID_00000140011920822581031660000011492878936320014772_);stroke:#010101;stroke-width:0.25;stroke-miterlimit:10;" d="
				M141.7,20.9c0,1.6-1.3,2.9-3,2.9c-1.6,0-2.9-1.3-2.9-3c0-1.6,1.3-2.9,3-2.9C140.4,17.9,141.8,19.2,141.7,20.9z"/>
			
				<radialGradient id="SVGID_00000023989708296317990410000007095798281416101541_" cx="144.2768" cy="26.3085" r="2.941" gradientUnits="userSpaceOnUse">
				<stop  offset="0" style="stop-color:#A0CAE6"/>
				<stop  offset="1" style="stop-color:#2484C7"/>
			</radialGradient>
			
				<path style="fill:url(#SVGID_00000023989708296317990410000007095798281416101541_);stroke:#010101;stroke-width:0.25;stroke-miterlimit:10;" d="
				M144.3,23.4c1.6,0,2.9,1.3,3,2.9c0,1.6-1.3,2.9-2.9,3c-1.6,0-2.9-1.3-3-2.9C141.3,24.7,142.6,23.4,144.3,23.4z"/>
			
				<radialGradient id="SVGID_00000000941113778496530520000017413064857920564135_" cx="111.3796" cy="26.2399" r="2.941" gradientUnits="userSpaceOnUse">
				<stop  offset="0" style="stop-color:#A0CAE6"/>
				<stop  offset="1" style="stop-color:#2484C7"/>
			</radialGradient>
			
				<path style="fill:url(#SVGID_00000000941113778496530520000017413064857920564135_);stroke:#010101;stroke-width:0.25;stroke-miterlimit:10;" d="
				M114.3,26.2c0,1.6-1.3,2.9-2.9,2.9c-1.6,0-2.9-1.3-2.9-2.9c0-1.6,1.3-2.9,2.9-2.9C113,23.3,114.3,24.6,114.3,26.2z"/>
			
				<radialGradient id="SVGID_00000152236388512771512210000014713073757017399220_" cx="144.2083" cy="48.2399" r="2.8924" gradientUnits="userSpaceOnUse">
				<stop  offset="0" style="stop-color:#A0CAE6"/>
				<stop  offset="1" style="stop-color:#2484C7"/>
			</radialGradient>
			
				<path style="fill:url(#SVGID_00000152236388512771512210000014713073757017399220_);stroke:#010101;stroke-width:0.25;stroke-miterlimit:10;" d="
				M147.1,48.2c0,1.6-1.3,2.9-2.9,2.9c-1.6,0-2.9-1.3-2.9-2.9c0-1.6,1.3-2.9,2.9-2.9C145.8,45.4,147.1,46.6,147.1,48.2z"/>
			
				<radialGradient id="SVGID_00000031189127273760721220000016026146431236265884_" cx="138.7254" cy="53.7228" r="2.8822" gradientUnits="userSpaceOnUse">
				<stop  offset="0" style="stop-color:#A0CAE6"/>
				<stop  offset="1" style="stop-color:#2484C7"/>
			</radialGradient>
			
				<path style="fill:url(#SVGID_00000031189127273760721220000016026146431236265884_);stroke:#010101;stroke-width:0.25;stroke-miterlimit:10;" d="
				M138.7,50.8c1.6,0,2.9,1.3,2.9,2.9c0,1.6-1.3,2.9-2.9,2.9c-1.6,0-2.9-1.3-2.9-2.9C135.9,52.1,137.1,50.8,138.7,50.8z"/>
			
				<radialGradient id="SVGID_00000066502828879552601890000015728700513662225080_" cx="116.7939" cy="53.6543" r="2.8822" gradientUnits="userSpaceOnUse">
				<stop  offset="0" style="stop-color:#A0CAE6"/>
				<stop  offset="1" style="stop-color:#2484C7"/>
			</radialGradient>
			
				<path style="fill:url(#SVGID_00000066502828879552601890000015728700513662225080_);stroke:#010101;stroke-width:0.25;stroke-miterlimit:10;" d="
				M116.8,56.5c-1.6,0-2.9-1.3-2.9-2.9c0-1.6,1.3-2.9,2.9-2.9c1.6,0,2.9,1.3,2.9,2.9C119.7,55.3,118.4,56.5,116.8,56.5z"/>
			
				<radialGradient id="SVGID_00000062161110962135369350000007986129540007767171_" cx="111.311" cy="48.1714" r="2.8822" gradientUnits="userSpaceOnUse">
				<stop  offset="0" style="stop-color:#A0CAE6"/>
				<stop  offset="1" style="stop-color:#2484C7"/>
			</radialGradient>
			
				<path style="fill:url(#SVGID_00000062161110962135369350000007986129540007767171_);stroke:#010101;stroke-width:0.25;stroke-miterlimit:10;" d="
				M111.3,51.1c-1.6,0-2.9-1.3-2.9-2.9c0-1.6,1.3-2.9,2.9-2.9c1.6,0,2.9,1.3,2.9,2.9C114.2,49.8,112.9,51,111.3,51.1z"/>
			
				<radialGradient id="SVGID_00000178914814180726027780000003064782337297681039_" cx="133.3111" cy="15.3427" r="2.6914" gradientUnits="userSpaceOnUse">
				<stop  offset="0" style="stop-color:#A0CAE6"/>
				<stop  offset="1" style="stop-color:#2484C7"/>
			</radialGradient>
			
				<path style="fill:url(#SVGID_00000178914814180726027780000003064782337297681039_);stroke:#010101;stroke-width:0.25;stroke-miterlimit:10;" d="
				M133.3,18c-1.5,0-2.7-1.2-2.7-2.7c0-1.5,1.2-2.7,2.7-2.7c1.5,0,2.7,1.2,2.7,2.7C136,16.8,134.8,18,133.3,18z"/>
			
				<radialGradient id="SVGID_00000041993921425610000310000017656192992183727778_" cx="122.3453" cy="15.2742" r="2.6788" gradientUnits="userSpaceOnUse">
				<stop  offset="0" style="stop-color:#A0CAE6"/>
				<stop  offset="1" style="stop-color:#2484C7"/>
			</radialGradient>
			
				<path style="fill:url(#SVGID_00000041993921425610000310000017656192992183727778_);stroke:#010101;stroke-width:0.25;stroke-miterlimit:10;" d="
				M125,15.3c0,1.5-1.2,2.7-2.7,2.7c-1.5,0-2.7-1.2-2.7-2.7c0-1.5,1.2-2.7,2.7-2.7C123.8,12.6,125,13.8,125,15.3z"/>
			
				<radialGradient id="SVGID_00000118368875196900703680000015148267785071559310_" cx="149.7597" cy="31.7913" r="2.6609" gradientUnits="userSpaceOnUse">
				<stop  offset="0" style="stop-color:#A0CAE6"/>
				<stop  offset="1" style="stop-color:#2484C7"/>
			</radialGradient>
			
				<path style="fill:url(#SVGID_00000118368875196900703680000015148267785071559310_);stroke:#010101;stroke-width:0.25;stroke-miterlimit:10;" d="
				M152.4,31.8c0,1.5-1.2,2.7-2.7,2.6c-1.5,0-2.7-1.2-2.6-2.7c0-1.5,1.2-2.7,2.7-2.6C151.2,29.1,152.4,30.4,152.4,31.8z"/>
			
				<radialGradient id="SVGID_00000000216375703008683780000002471775360839023791_" cx="105.8967" cy="31.7228" r="2.6608" gradientUnits="userSpaceOnUse">
				<stop  offset="0" style="stop-color:#A0CAE6"/>
				<stop  offset="1" style="stop-color:#2484C7"/>
			</radialGradient>
			
				<path style="fill:url(#SVGID_00000000216375703008683780000002471775360839023791_);stroke:#010101;stroke-width:0.25;stroke-miterlimit:10;" d="
				M105.9,34.4c-1.5,0-2.7-1.2-2.6-2.7c0-1.5,1.2-2.7,2.7-2.6c1.5,0,2.7,1.2,2.6,2.7C108.5,33.2,107.3,34.4,105.9,34.4z"/>
			
				<radialGradient id="SVGID_00000065763683709916559820000018202250847564041108_" cx="149.6912" cy="42.7571" r="2.6428" gradientUnits="userSpaceOnUse">
				<stop  offset="0" style="stop-color:#A0CAE6"/>
				<stop  offset="1" style="stop-color:#2484C7"/>
			</radialGradient>
			
				<path style="fill:url(#SVGID_00000065763683709916559820000018202250847564041108_);stroke:#010101;stroke-width:0.25;stroke-miterlimit:10;" d="
				M147,42.8c0-1.5,1.2-2.6,2.6-2.6c1.5,0,2.7,1.2,2.6,2.7c0,1.5-1.2,2.6-2.7,2.6C148.2,45.4,147,44.2,147,42.8z"/>
			
				<radialGradient id="SVGID_00000063598681451031859170000017956674165075759488_" cx="105.8282" cy="42.6885" r="2.6208" gradientUnits="userSpaceOnUse">
				<stop  offset="0" style="stop-color:#A0CAE6"/>
				<stop  offset="1" style="stop-color:#2484C7"/>
			</radialGradient>
			
				<path style="fill:url(#SVGID_00000063598681451031859170000017956674165075759488_);stroke:#010101;stroke-width:0.25;stroke-miterlimit:10;" d="
				M105.8,45.3c-1.5,0-2.6-1.2-2.6-2.6c0-1.5,1.2-2.6,2.6-2.6c1.5,0,2.6,1.2,2.6,2.6C108.4,44.2,107.3,45.3,105.8,45.3z"/>
			
				<radialGradient id="SVGID_00000105416272295292651460000011399867890355097753_" cx="133.2425" cy="59.2057" r="2.6007" gradientUnits="userSpaceOnUse">
				<stop  offset="0" style="stop-color:#A0CAE6"/>
				<stop  offset="1" style="stop-color:#2484C7"/>
			</radialGradient>
			
				<path style="fill:url(#SVGID_00000105416272295292651460000011399867890355097753_);stroke:#010101;stroke-width:0.25;stroke-miterlimit:10;" d="
				M135.8,59.2c0,1.4-1.2,2.6-2.6,2.6c-1.4,0-2.6-1.2-2.6-2.6c0-1.4,1.2-2.6,2.6-2.6C134.7,56.6,135.8,57.8,135.8,59.2z"/>
			
				<radialGradient id="SVGID_00000044895280334470213010000004541613361361329315_" cx="122.2768" cy="59.1371" r="2.6007" gradientUnits="userSpaceOnUse">
				<stop  offset="0" style="stop-color:#A0CAE6"/>
				<stop  offset="1" style="stop-color:#2484C7"/>
			</radialGradient>
			
				<path style="fill:url(#SVGID_00000044895280334470213010000004541613361361329315_);stroke:#010101;stroke-width:0.25;stroke-miterlimit:10;" d="
				M122.3,61.7c-1.4,0-2.6-1.2-2.6-2.6c0-1.4,1.2-2.6,2.6-2.6c1.4,0,2.6,1.2,2.6,2.6C124.9,60.6,123.7,61.7,122.3,61.7z"/>
			
				<radialGradient id="SVGID_00000165956495601008173000000017690163555802046641_" cx="127.8282" cy="9.8597" r="2.179" gradientUnits="userSpaceOnUse">
				<stop  offset="0" style="stop-color:#A0CAE6"/>
				<stop  offset="1" style="stop-color:#2484C7"/>
			</radialGradient>
			
				<path style="fill:url(#SVGID_00000165956495601008173000000017690163555802046641_);stroke:#010101;stroke-width:0.25;stroke-miterlimit:10;" d="
				M130,9.8c0,1.2-1,2.2-2.2,2.2c-1.2,0-2.2-1-2.2-2.2c0-1.2,1-2.2,2.2-2.2C129,7.7,130,8.6,130,9.8z"/>
			
				<radialGradient id="SVGID_00000067232738738640054220000016786182829028839335_" cx="111.3796" cy="15.2742" r="2.1531" gradientUnits="userSpaceOnUse">
				<stop  offset="0" style="stop-color:#A0CAE6"/>
				<stop  offset="1" style="stop-color:#2484C7"/>
			</radialGradient>
			
				<path style="fill:url(#SVGID_00000067232738738640054220000016786182829028839335_);stroke:#010101;stroke-width:0.25;stroke-miterlimit:10;" d="
				M113.5,15.3c0,1.2-1,2.2-2.1,2.2c-1.2,0-2.2-1-2.2-2.1c0-1.2,1-2.2,2.1-2.2C112.6,13.1,113.5,14.1,113.5,15.3z"/>
			
				<radialGradient id="SVGID_00000116212165876501461850000007851502602468992136_" cx="144.2768" cy="15.3427" r="2.1533" gradientUnits="userSpaceOnUse">
				<stop  offset="0" style="stop-color:#A0CAE6"/>
				<stop  offset="1" style="stop-color:#2484C7"/>
			</radialGradient>
			
				<path style="fill:url(#SVGID_00000116212165876501461850000007851502602468992136_);stroke:#010101;stroke-width:0.25;stroke-miterlimit:10;" d="
				M144.2,17.5c-1.2,0-2.1-1-2.1-2.2c0-1.2,1-2.1,2.2-2.1c1.2,0,2.1,1,2.1,2.2C146.4,16.6,145.4,17.5,144.2,17.5z"/>
			
				<radialGradient id="SVGID_00000044884660729491929780000006883961539879864741_" cx="149.7597" cy="20.8256" r="2.1532" gradientUnits="userSpaceOnUse">
				<stop  offset="0" style="stop-color:#A0CAE6"/>
				<stop  offset="1" style="stop-color:#2484C7"/>
			</radialGradient>
			
				<path style="fill:url(#SVGID_00000044884660729491929780000006883961539879864741_);stroke:#010101;stroke-width:0.25;stroke-miterlimit:10;" d="
				M149.7,18.7c1.2,0,2.2,0.9,2.2,2.1c0,1.2-0.9,2.2-2.1,2.2c-1.2,0-2.2-0.9-2.2-2.1C147.6,19.6,148.5,18.7,149.7,18.7z"/>
			
				<radialGradient id="SVGID_00000081643392919489299550000008324907744751870098_" cx="105.8967" cy="20.757" r="2.1332" gradientUnits="userSpaceOnUse">
				<stop  offset="0" style="stop-color:#A0CAE6"/>
				<stop  offset="1" style="stop-color:#2484C7"/>
			</radialGradient>
			
				<path style="fill:url(#SVGID_00000081643392919489299550000008324907744751870098_);stroke:#010101;stroke-width:0.25;stroke-miterlimit:10;" d="
				M108,20.8c0,1.2-0.9,2.1-2.1,2.1c-1.2,0-2.1-1-2.1-2.2c0-1.2,1-2.1,2.2-2.1C107.1,18.6,108,19.6,108,20.8z"/>
			
				<radialGradient id="SVGID_00000072991111732840066670000009856577956967651716_" cx="155.174" cy="37.2742" r="2.1226" gradientUnits="userSpaceOnUse">
				<stop  offset="0" style="stop-color:#A0CAE6"/>
				<stop  offset="1" style="stop-color:#2484C7"/>
			</radialGradient>
			
				<path style="fill:url(#SVGID_00000072991111732840066670000009856577956967651716_);stroke:#010101;stroke-width:0.25;stroke-miterlimit:10;" d="
				M157.3,37.3c0,1.2-1,2.1-2.1,2.1c-1.2,0-2.1-1-2.1-2.1c0-1.2,1-2.1,2.1-2.1C156.3,35.2,157.3,36.1,157.3,37.3z"/>
			
				<radialGradient id="SVGID_00000004528563255488366610000016553996854131620019_" cx="100.3452" cy="37.2055" r="2.1089" gradientUnits="userSpaceOnUse">
				<stop  offset="0" style="stop-color:#A0CAE6"/>
				<stop  offset="1" style="stop-color:#2484C7"/>
			</radialGradient>
			
				<path style="fill:url(#SVGID_00000004528563255488366610000016553996854131620019_);stroke:#010101;stroke-width:0.25;stroke-miterlimit:10;" d="
				M100.3,39.3c-1.2,0-2.1-1-2.1-2.1c0-1.2,1-2.1,2.1-2.1c1.1,0,2.1,1,2.1,2.1C102.4,38.4,101.5,39.3,100.3,39.3z"/>
			
				<radialGradient id="SVGID_00000054974015520583439530000005950703286482801585_" cx="149.6911" cy="53.7228" r="2.0812" gradientUnits="userSpaceOnUse">
				<stop  offset="0" style="stop-color:#A0CAE6"/>
				<stop  offset="1" style="stop-color:#2484C7"/>
			</radialGradient>
			
				<path style="fill:url(#SVGID_00000054974015520583439530000005950703286482801585_);stroke:#010101;stroke-width:0.25;stroke-miterlimit:10;" d="
				M151.8,53.7c0,1.2-0.9,2.1-2.1,2.1c-1.2,0-2.1-0.9-2.1-2.1c0-1.1,0.9-2.1,2.1-2.1C150.8,51.6,151.8,52.6,151.8,53.7z"/>
			
				<radialGradient id="SVGID_00000135684522364474597530000009350705498466828457_" cx="111.311" cy="59.1371" r="2.0627" gradientUnits="userSpaceOnUse">
				<stop  offset="0" style="stop-color:#A0CAE6"/>
				<stop  offset="1" style="stop-color:#2484C7"/>
			</radialGradient>
			
				<path style="fill:url(#SVGID_00000135684522364474597530000009350705498466828457_);stroke:#010101;stroke-width:0.25;stroke-miterlimit:10;" d="
				M111.3,61.2c-1.1,0-2.1-0.9-2.1-2.1c0-1.1,0.9-2.1,2.1-2.1c1.1,0,2.1,0.9,2.1,2.1C113.4,60.3,112.5,61.2,111.3,61.2z"/>
			
				<radialGradient id="SVGID_00000163053184130685637710000015659766340327581351_" cx="144.2083" cy="59.2057" r="2.0627" gradientUnits="userSpaceOnUse">
				<stop  offset="0" style="stop-color:#A0CAE6"/>
				<stop  offset="1" style="stop-color:#2484C7"/>
			</radialGradient>
			
				<path style="fill:url(#SVGID_00000163053184130685637710000015659766340327581351_);stroke:#010101;stroke-width:0.25;stroke-miterlimit:10;" d="
				M144.2,57.1c1.2,0,2.1,0.9,2.1,2c0,1.2-0.9,2.1-2,2.1c-1.2,0-2.1-0.9-2.1-2C142.1,58.1,143,57.1,144.2,57.1z"/>
			
				<radialGradient id="SVGID_00000085941970481807026280000013006983751752115094_" cx="105.8282" cy="53.6543" r="2.0627" gradientUnits="userSpaceOnUse">
				<stop  offset="0" style="stop-color:#A0CAE6"/>
				<stop  offset="1" style="stop-color:#2484C7"/>
			</radialGradient>
			
				<path style="fill:url(#SVGID_00000085941970481807026280000013006983751752115094_);stroke:#010101;stroke-width:0.25;stroke-miterlimit:10;" d="
				M105.8,55.7c-1.1,0-2.1-0.9-2.1-2.1c0-1.1,0.9-2.1,2.1-2.1c1.1,0,2.1,0.9,2.1,2.1C107.9,54.8,107,55.7,105.8,55.7z"/>
			
				<radialGradient id="SVGID_00000146481817671385181010000008291618359934213821_" cx="127.7596" cy="64.6885" r="2.0521" gradientUnits="userSpaceOnUse">
				<stop  offset="0" style="stop-color:#A0CAE6"/>
				<stop  offset="1" style="stop-color:#2484C7"/>
			</radialGradient>
			
				<path style="fill:url(#SVGID_00000146481817671385181010000008291618359934213821_);stroke:#010101;stroke-width:0.25;stroke-miterlimit:10;" d="
				M129.8,64.7c0,1.1-0.9,2-2.1,2c-1.1,0-2.1-0.9-2-2.1c0-1.1,1-2,2.1-2C128.9,62.6,129.8,63.6,129.8,64.7z"/>
			
				<radialGradient id="SVGID_00000174564996466807378570000018011217202963341957_" cx="138.7939" cy="9.8598" r="1.9177" gradientUnits="userSpaceOnUse">
				<stop  offset="0" style="stop-color:#A0CAE6"/>
				<stop  offset="1" style="stop-color:#2484C7"/>
			</radialGradient>
			
				<path style="fill:url(#SVGID_00000174564996466807378570000018011217202963341957_);stroke:#010101;stroke-width:0.25;stroke-miterlimit:10;" d="
				M140.7,9.9c0,1.1-0.9,1.9-1.9,1.9c-1.1,0-1.9-0.9-1.9-1.9c0-1.1,0.9-1.9,1.9-1.9C139.9,7.9,140.7,8.8,140.7,9.9z"/>
			
				<radialGradient id="SVGID_00000051359071252927353270000017689782883658423709_" cx="116.8625" cy="9.7914" r="1.9024" gradientUnits="userSpaceOnUse">
				<stop  offset="0" style="stop-color:#A0CAE6"/>
				<stop  offset="1" style="stop-color:#2484C7"/>
			</radialGradient>
			
				<path style="fill:url(#SVGID_00000051359071252927353270000017689782883658423709_);stroke:#010101;stroke-width:0.25;stroke-miterlimit:10;" d="
				M118.8,9.8c0,1-0.8,1.9-1.9,1.9c-1,0-1.9-0.9-1.9-1.9c0-1,0.9-1.9,1.9-1.9C117.9,7.9,118.8,8.7,118.8,9.8z"/>
			
				<radialGradient id="SVGID_00000132076099907182467130000011427098968493869474_" cx="155.1741" cy="48.2401" r="1.9025" gradientUnits="userSpaceOnUse">
				<stop  offset="0" style="stop-color:#A0CAE6"/>
				<stop  offset="1" style="stop-color:#2484C7"/>
			</radialGradient>
			
				<path style="fill:url(#SVGID_00000132076099907182467130000011427098968493869474_);stroke:#010101;stroke-width:0.25;stroke-miterlimit:10;" d="
				M157.1,48.2c0,1-0.8,1.9-1.9,1.9c-1,0-1.9-0.9-1.9-1.9c0-1,0.9-1.9,1.9-1.9C156.2,46.3,157.1,47.2,157.1,48.2z"/>
			
				<radialGradient id="SVGID_00000055704727516886030870000003209766901493238964_" cx="116.794" cy="64.6198" r="1.9025" gradientUnits="userSpaceOnUse">
				<stop  offset="0" style="stop-color:#A0CAE6"/>
				<stop  offset="1" style="stop-color:#2484C7"/>
			</radialGradient>
			
				<path style="fill:url(#SVGID_00000055704727516886030870000003209766901493238964_);stroke:#010101;stroke-width:0.25;stroke-miterlimit:10;" d="
				M116.8,66.5c-1,0-1.9-0.9-1.9-1.9c0-1,0.9-1.9,1.9-1.9c1,0,1.9,0.9,1.9,1.9C118.7,65.7,117.8,66.5,116.8,66.5z"/>
			
				<radialGradient id="SVGID_00000066516569087980345100000001544682892556796851_" cx="138.7253" cy="64.6885" r="1.9024" gradientUnits="userSpaceOnUse">
				<stop  offset="0" style="stop-color:#A0CAE6"/>
				<stop  offset="1" style="stop-color:#2484C7"/>
			</radialGradient>
			
				<path style="fill:url(#SVGID_00000066516569087980345100000001544682892556796851_);stroke:#010101;stroke-width:0.25;stroke-miterlimit:10;" d="
				M138.7,66.6c-1,0-1.9-0.8-1.9-1.9c0-1,0.9-1.9,1.9-1.9c1,0,1.9,0.9,1.9,1.9C140.6,65.7,139.8,66.6,138.7,66.6z"/>
			
				<radialGradient id="SVGID_00000093873786843766670610000016161897571591250066_" cx="155.2424" cy="26.3083" r="1.9026" gradientUnits="userSpaceOnUse">
				<stop  offset="0" style="stop-color:#A0CAE6"/>
				<stop  offset="1" style="stop-color:#2484C7"/>
			</radialGradient>
			
				<path style="fill:url(#SVGID_00000093873786843766670610000016161897571591250066_);stroke:#010101;stroke-width:0.25;stroke-miterlimit:10;" d="
				M157.1,26.3c0,1-0.9,1.9-1.9,1.9c-1,0-1.9-0.9-1.9-1.9c0-1,0.9-1.9,1.9-1.9C156.3,24.4,157.2,25.3,157.1,26.3z"/>
			
				<radialGradient id="SVGID_00000054946512374810815840000001916599916899439031_" cx="100.3452" cy="48.1714" r="1.8718" gradientUnits="userSpaceOnUse">
				<stop  offset="0" style="stop-color:#A0CAE6"/>
				<stop  offset="1" style="stop-color:#2484C7"/>
			</radialGradient>
			
				<path style="fill:url(#SVGID_00000054946512374810815840000001916599916899439031_);stroke:#010101;stroke-width:0.25;stroke-miterlimit:10;" d="
				M100.4,50c-1,0-1.9-0.8-1.9-1.8c0-1.1,0.8-1.9,1.9-1.9c1,0,1.9,0.8,1.9,1.9C102.2,49.2,101.4,50,100.4,50z"/>
			
				<radialGradient id="SVGID_00000004534943596506328910000015780569986865980862_" cx="100.4138" cy="26.24" r="1.8718" gradientUnits="userSpaceOnUse">
				<stop  offset="0" style="stop-color:#A0CAE6"/>
				<stop  offset="1" style="stop-color:#2484C7"/>
			</radialGradient>
			
				<path style="fill:url(#SVGID_00000004534943596506328910000015780569986865980862_);stroke:#010101;stroke-width:0.25;stroke-miterlimit:10;" d="
				M102.3,26.2c0,1-0.8,1.9-1.9,1.9c-1.1,0-1.9-0.8-1.9-1.9c0-1,0.8-1.9,1.9-1.9C101.5,24.4,102.3,25.2,102.3,26.2z"/>
			
				<radialGradient id="SVGID_00000106139128424552086110000006220814167592516786_" cx="127.7596" cy="37.2742" r="6.4758" gradientUnits="userSpaceOnUse">
				<stop  offset="0" style="stop-color:#A0CAE6"/>
				<stop  offset="1" style="stop-color:#2484C7"/>
			</radialGradient>
			
				<path style="fill:url(#SVGID_00000106139128424552086110000006220814167592516786_);stroke:#010101;stroke-width:0.25;stroke-miterlimit:10;" d="
				M127.8,30.8c3.6,0,6.5,2.9,6.4,6.5c0,3.6-2.9,6.5-6.5,6.4c-3.6,0-6.5-2.9-6.4-6.5C121.3,33.7,124.2,30.8,127.8,30.8z"/>
		</g>
		
			<radialGradient id="SVGID_00000117659419588276397580000008080019286976727740_" cx="127.7665" cy="83.9792" r="23.2359" gradientUnits="userSpaceOnUse">
			<stop  offset="0" style="stop-color:#A0CAE6"/>
			<stop  offset="1" style="stop-color:#2484C7"/>
		</radialGradient>
		
			<path style="fill:url(#SVGID_00000117659419588276397580000008080019286976727740_);stroke:#010101;stroke-width:0.25;stroke-miterlimit:10;" d="
			M127.8,72.8c-9.1,0.4-18.4-1.7-27.9-6.2c0.2,0.6,0.2,1,0.4,1.3c1.2,2.6,3.1,4.5,5.6,5.8c3.4,1.7,6.8,3.4,10.2,5.1
			c4.6,2.3,7,6,6.9,11.2c0,3.3,0,6.6,0,9.8c0,1.1,0.3,1.5,1.5,1.5c1.1,0,2.2,0,3.3,0c1.1,0,2.2,0,3.3,0c1.1,0,1.5-0.4,1.5-1.5
			c0-3.3,0-6.6,0-9.8c0-5.2,2.3-8.9,6.9-11.2c3.4-1.7,6.8-3.4,10.2-5.1c2.6-1.3,4.4-3.2,5.6-5.8c0.2-0.4,0.2-0.8,0.4-1.3
			C146.2,71.1,136.9,73.2,127.8,72.8z"/>
	</g>
	<g>
		<text transform="matrix(1 0 0 1 167.7605 101.335)" class="st52 st53 st54">ACE</text>
		<g>
			
				<linearGradient id="SVGID_00000036960635333454058130000009722474108709815731_" gradientUnits="userSpaceOnUse" x1="168.8911" y1="51.8381" x2="409.3467" y2="51.8381">
				<stop  offset="0" style="stop-color:#2484C7"/>
				<stop  offset="1" style="stop-color:#A0CAE6"/>
			</linearGradient>
			<path style="fill:url(#SVGID_00000036960635333454058130000009722474108709815731_);" d="M168.9,101.3l32-98.2h15.8l32,98.2
				h-12.3l-9.9-29.4H191l-9.9,29.4H168.9z M194.6,61H223l-14.2-42.5L194.6,61z"/>
			
				<linearGradient id="SVGID_00000026880659201107336080000003947065797336811683_" gradientUnits="userSpaceOnUse" x1="168.8911" y1="51.8381" x2="409.3467" y2="51.8381">
				<stop  offset="0" style="stop-color:#2484C7"/>
				<stop  offset="1" style="stop-color:#A0CAE6"/>
			</linearGradient>
			<path style="fill:url(#SVGID_00000026880659201107336080000003947065797336811683_);" d="M253.7,52.2c0-15.4,3.7-27.8,11-37.1
				c7.4-9.3,17.2-13.9,29.4-13.9c9.6,0,17.9,3.1,24.9,9.2c7.1,6.2,11.1,14,12,23.4h-12.3c-0.5-6.1-3.2-11.3-7.9-15.5
				c-4.7-4.1-10.3-6.1-16.6-6.1c-8.8,0-15.9,4.2-21.2,12.6c-4.6,7.5-6.9,16.7-6.9,27.5c0,10.6,2.4,19.5,7.1,27
				c5.3,8.2,12.3,12.3,21,12.3c7.2,0,13-2.2,17.4-6.5c4.5-4.3,6.9-10.1,7.1-17.3h12.3c0,10.6-3.3,18.9-10,25.2
				c-6.8,6.4-15.7,9.5-26.8,9.5c-12.2,0-22-4.6-29.4-13.7C257.3,79.6,253.7,67.4,253.7,52.2z"/>
			
				<linearGradient id="SVGID_00000008142248616784444480000012936425779883607220_" gradientUnits="userSpaceOnUse" x1="168.8911" y1="51.8381" x2="409.3467" y2="51.8381">
				<stop  offset="0" style="stop-color:#2484C7"/>
				<stop  offset="1" style="stop-color:#A0CAE6"/>
			</linearGradient>
			<path style="fill:url(#SVGID_00000008142248616784444480000012936425779883607220_);" d="M341.8,101.3V3.1h67.5v11.6h-55.2v30
				h49.1v11.6h-49.1v33.3h55.2v11.6H341.8z"/>
		</g>
	</g>
</g>
<text transform="matrix(1 0 0 1 6.9057 156.0925)" class="st58 st59 st60">Assay Configurator for ELIspot</text>
<line class="st61" x1="6.7" y1="160.8" x2="29.9" y2="160.8"/>
<line class="st61" x1="118.1" y1="160.8" x2="141.3" y2="160.8"/>
<line class="st61" x1="381.2" y1="160.8" x2="404.4" y2="160.8"/>
<text transform="matrix(1 0 0 1 67.2888 186.7499)" class="st58 st62 st63">Determining peptide immunogenicity at scale.</text>
</svg>
